<?xml version="1.0" encoding="UTF-8"?>
<svg width="472px" height="191px" viewBox="0 0 472 191" version="1.1" xmlns="http://www.w3.org/2000/svg" xmlns:xlink="http://www.w3.org/1999/xlink">
    <!-- Generator: Sketch 52.4 (67378) - http://www.bohemiancoding.com/sketch -->
    <title>Artboard</title>
    <desc>Created with Sketch.</desc>
    <defs>
        <polygon id="path-1" points="0 212 450 212 450 0 0 0"></polygon>
    </defs>
    <g id="Artboard" stroke="none" stroke-width="1" fill="none" fill-rule="evenodd">
        <g id="text-center" transform="translate(38.000000, -9.000000)">
            <g id="g10" transform="translate(225.000000, 106.000000) scale(-1, 1) rotate(-180.000000) translate(-225.000000, -106.000000) ">
                <g id="g12">
                    <g id="g14-Clipped">
                        <mask id="mask-2" fill="white">
                            <use xlink:href="#path-1"></use>
                        </mask>
                        <g id="path16"></g>
                        <g id="g14" mask="url(#mask-2)">
                            <g transform="translate(14.000000, 16.000000)">
                                <g id="text22" transform="translate(105.939900, 20.564500) scale(-1, 1) rotate(-180.000000) translate(-105.939900, -20.564500) translate(0.439900, 0.564500)">
                                    <path d="M16.213391,1.167449 C20.0687083,1.167449 23.509669,1.97814667 26.536273,3.599542 C29.562877,5.184906 31.904892,7.418828 33.562318,10.301308 C35.2557753,13.1477567 36.102504,16.4085623 36.102504,20.083725 C36.102504,23.758887 35.23776,27.0377079 33.508272,29.9201878 C31.8148147,32.7666369 29.4367687,35.0005589 26.374134,36.6219539 C23.3114987,38.207318 19.8164913,39 15.889112,39 L0.1615806,39 L0.1615806,1.167449 L16.213391,1.167449 Z M16.429577,31.8118153 C18.5193757,31.8118153 20.392988,31.3253968 22.050414,30.3525598 C23.7438707,29.3436919 25.059002,27.9564983 25.995808,26.190979 C26.932614,24.4254603 27.401017,22.4077243 27.401017,20.137771 C27.401017,17.8678183 26.896583,15.8320667 25.887715,14.030516 C24.9148783,12.228966 23.563716,10.8417727 21.834228,9.868936 C20.1407707,8.860068 18.213112,8.355634 16.051252,8.355634 L8.700928,8.355634 L8.700928,31.8118153 L16.429577,31.8118153 Z" id="path44" fill="#181818" fill-rule="nonzero"></path>
                                    <polygon id="path46" fill="#181818" fill-rule="nonzero" points="41.723341 1.167449 50.262688 1.167449 50.262688 39 41.723341 39"></polygon>
                                    <path d="M84.04175,19.921585 L91.44612,19.921585 L91.44612,34.6222334 C89.428384,36.0995045 87.014307,37.306543 84.203889,38.243349 C81.393471,39.144124 78.691146,39.5945115 76.096914,39.5945115 C72.3136587,39.5945115 68.8907137,38.747783 65.828079,37.054326 C62.7654437,35.3248379 60.3513667,32.9828229 58.585848,30.0282808 C56.8203287,27.0377076 55.937569,23.70484 55.937569,20.029678 C55.937569,16.3905467 56.838344,13.09371 58.639894,10.139168 C60.441444,7.14859533 62.9095677,4.80658033 66.044265,3.113123 C69.214993,1.41966633 72.7280153,0.572938 76.583332,0.572938 C79.3937507,0.572938 82.132107,1.077372 84.798401,2.08624 C87.5007257,3.095108 89.824725,4.464286 91.770399,6.193774 L86.960261,12.301028 C85.5550517,10.9678813 83.9336567,9.92298233 82.096076,9.166331 C80.2584947,8.40968033 78.4209133,8.031355 76.583332,8.031355 C74.3854413,8.031355 72.3677053,8.57182 70.530124,9.65275 C68.728574,10.6976487 67.3053497,12.1388887 66.260451,13.97647 C65.2155517,15.77802 64.693102,17.795756 64.693102,20.029678 C64.693102,22.2636 65.2155517,24.317367 66.260451,26.190979 C67.341381,28.0285603 68.782621,29.4878159 70.584171,30.5687458 C72.4217517,31.6136449 74.4394877,32.1360944 76.637379,32.1360944 C77.7543397,32.1360944 78.961378,31.9559394 80.258494,31.5956293 C81.5556107,31.1992883 82.816696,30.6768388 84.04175,30.0282808 L84.04175,19.921585 Z" id="path48" fill="#181818" fill-rule="nonzero"></path>
                                    <polygon id="path50" fill="#181818" fill-rule="nonzero" points="98.90454 1.167449 107.44389 1.167449 107.44389 39 98.90454 39"></polygon>
                                    <polygon id="path52" fill="#181818" fill-rule="nonzero" points="112.09188 1.167449 143.70908 1.167449 143.70908 8.40968 132.14313 8.40968 132.14313 39 123.60378 39 123.60378 8.40968 112.09188 8.40968"></polygon>
                                    <path d="M172.29968,39 L169.32712,31.6496758 L151.81606,31.6496758 L148.8435,39 L140.03392,39 L156.46406,1.167449 L165.27364,1.167449 L181.43354,39 L172.29968,39 Z M154.62648,24.78577 L166.57075,24.78577 L160.62564,10.085122 L154.62648,24.78577 Z" id="path54" fill="#181818" fill-rule="nonzero"></path>
                                    <polygon id="path56" fill="#181818" fill-rule="nonzero" points="185.37894 1.167449 193.91829 1.167449 193.91829 31.5415828 210.13224 31.5415828 210.13224 39 185.37894 39"></polygon>
                                </g>
                                <g id="text26" transform="translate(318.490920, 20.064500) scale(-1, 1) rotate(-180.000000) translate(-318.490920, -20.064500) translate(216.490920, 0.564500)">
                                    <polygon id="path59" fill="#181818" fill-rule="nonzero" points="0.7289291 0.167449 5.052649 0.167449 5.052649 17.30019 27.860273 17.30019 27.860273 0.167449 32.183993 0.167449 32.183993 38 27.860273 38 27.860273 21.245585 5.052649 21.245585 5.052649 38 0.7289291 38"></polygon>
                                    <path d="M47.154874,22.596747 C47.154874,26.2719092 48.1817573,29.1543893 50.235524,31.2441874 C52.2892913,33.3339854 55.0997093,34.3788844 58.666778,34.3788844 C62.2338473,34.3788844 65.02625,33.3520009 67.043986,31.2982339 C69.0977533,29.2084358 70.124637,26.3079402 70.124637,22.596747 L70.124637,0.167449 L74.39431,0.167449 L74.39431,22.596747 C74.39431,27.4969632 73.0071167,31.3522803 70.23273,34.1626984 C67.4583427,36.9370855 63.6030253,38.324279 58.666778,38.324279 C53.7305313,38.324279 49.857199,36.9370855 47.046781,34.1626984 C44.236363,31.3522803 42.831154,27.4969632 42.831154,22.596747 L42.831154,0.167449 L47.154874,0.167449 L47.154874,22.596747 Z" id="path61" fill="#181818" fill-rule="nonzero"></path>
                                    <path d="M101.09328,0.167449 C104.912567,0.167449 107.90314,1.01417767 110.065,2.707635 C112.262887,4.365061 113.36183,6.671045 113.36183,9.625587 C113.36183,11.8234777 112.73129,13.6790743 111.47021,15.192377 C110.245157,16.705679 108.533683,17.6965313 106.33579,18.164934 C109.074143,18.5612753 111.199973,19.6061743 112.71328,21.299631 C114.22658,22.9930883 114.98323,25.136933 114.98323,27.731165 C114.98323,30.9379239 113.77619,33.4600939 111.36211,35.2976749 C108.948037,37.099225 105.597153,38 101.30946,38 L85.149561,38 L85.149561,0.167449 L101.09328,0.167449 Z M100.87709,16.543539 C103.43529,16.543539 105.416997,16.003074 106.82221,14.922144 C108.227417,13.8051827 108.93002,12.2558497 108.93002,10.274145 C108.93002,8.328471 108.227417,6.83318433 106.82221,5.788285 C105.416997,4.707355 103.43529,4.16689 100.87709,4.16689 L89.473281,4.16689 L89.473281,16.543539 L100.87709,16.543539 Z M100.87709,34.0005589 C103.975757,34.0365896 106.37182,33.4600936 108.06528,32.2710709 C109.758733,31.0820478 110.60546,29.3885909 110.60546,27.1907 C110.60546,25.0648707 109.740717,23.42546 108.01123,22.272468 C106.31777,21.0834453 103.939723,20.5069493 100.87709,20.54298 L89.473281,20.54298 L89.473281,34.0005589 L100.87709,34.0005589 Z" id="path63" fill="#181818" fill-rule="nonzero"></path>
                                    <path d="M123.68472,32.9196289 C124.40534,32.9196289 125.017867,33.1898614 125.5223,33.7303264 C126.026733,34.2347604 126.27895,34.8833184 126.27895,35.6760005 C126.27895,36.4686825 126.026733,37.135256 125.5223,37.675721 C125.017867,38.180155 124.40534,38.432372 123.68472,38.432372 C122.928067,38.432372 122.297523,38.180155 121.79309,37.675721 C121.288657,37.135256 121.03644,36.4686825 121.03644,35.6760005 C121.03644,34.8833184 121.288657,34.2347604 121.79309,33.7303264 C122.297523,33.1898614 122.928067,32.9196289 123.68472,32.9196289 Z" id="path65" fill="#181818" fill-rule="nonzero"></path>
                                    <path d="M149.78918,0.167449 C153.428313,0.167449 156.72515,0.996162 159.67969,2.653588 C162.63423,4.311014 164.95823,6.580967 166.65169,9.463447 C168.381177,12.345927 169.24592,15.5526863 169.24592,19.083725 C169.24592,22.614763 168.381177,25.8215219 166.65169,28.7040018 C164.95823,31.5864819 162.616213,33.8564349 159.62564,35.5138609 C156.635067,37.171287 153.3022,38 149.62704,38 L134.49402,38 L134.49402,0.167449 L149.78918,0.167449 Z M149.84328,34.0005589 C152.617667,34.0005589 155.139837,33.3520009 157.40979,32.0548849 C159.71577,30.7577688 161.535333,28.9742342 162.86848,26.704281 C164.201627,24.4343283 164.8682,21.9121583 164.8682,19.137771 C164.8682,16.327353 164.183613,13.7871673 162.81444,11.517214 C161.481293,9.24726133 159.661727,7.463727 157.35574,6.166611 C155.049753,4.83346367 152.491553,4.16689 149.68114,4.16689 L138.81779,4.16689 L138.81779,34.0005589 L149.84328,34.0005589 Z" id="path67" fill="#181818" fill-rule="nonzero"></path>
                                    <polygon id="path69" fill="#181818" fill-rule="nonzero" points="177.35289 0.167449 203.02498 0.167449 203.02498 4.16689 181.67661 4.16689 181.67661 16.867818 200.75503 16.867818 200.75503 20.813213 181.67661 20.813213 181.67661 34.0005589 203.72758 34.0005589 203.72758 38 177.35289 38"></polygon>
                                </g>
                                <g id="Group" transform="translate(124.000000, 68.000000)">
                                    <g id="g28" transform="translate(0.765100, 25.808100)" fill="#29BBEF" fill-rule="nonzero">
                                        <path d="M49,32 L17.894,0.894 C16.829,-0.171 15.103,-0.171 14.039,0.894 L0.875,14.058 C-0.19,15.123 -0.19,16.848 0.875,17.913 L14.342,31.38 C15.406,32.444 15.406,34.17 14.342,35.235 L0.933,48.644 C-0.121,49.697 -0.133,51.401 0.905,52.47 L14.486,66.458 C15.546,67.549 17.293,67.562 18.369,66.486 L49,35.855 C50.065,34.791 50.065,33.065 49,32" id="path30"></path>
                                    </g>
                                    <g id="g32" transform="translate(69.675800, 25.721200)" fill="#F7A602" fill-rule="nonzero">
                                        <path d="M49,18 L35.532,31.467 C34.468,32.531 34.468,34.257 35.532,35.322 L48.941,48.731 C49.995,49.784 50.007,51.488 48.97,52.557 L35.389,66.544 C34.328,67.636 32.581,67.648 31.505,66.573 L0.874,35.942 C-0.19,34.877 -0.19,33.152 0.874,32.087 L31.98,0.98 C33.045,-0.084 34.771,-0.084 35.836,0.98 L49,14.145 C50.064,15.209 50.064,16.935 49,18" id="path34"></path>
                                    </g>
                                    <g id="g36" transform="translate(25.716300, 68.904800)" fill="#E51A54" fill-rule="nonzero">
                                        <path d="M32,1 C33.064,-0.064 34.791,-0.064 35.855,1 L66.486,31.631 C67.562,32.707 67.548,34.454 66.458,35.514 L52.47,49.095 C51.401,50.133 49.697,50.121 48.644,49.067 L35.235,35.658 C34.17,34.594 32.444,34.594 31.38,35.658 L17.913,49.125 C16.848,50.19 15.122,50.19 14.058,49.125 L0.894,35.961 C-0.171,34.897 -0.171,33.171 0.894,32.106 L32,1 Z" id="path38"></path>
                                    </g>
                                    <g id="g40" transform="translate(25.571300, 0.120100)" fill="#93C11C" fill-rule="nonzero">
                                        <path d="M36,49 C34.936,50.064 33.209,50.064 32.145,49 L1.039,17.894 C-0.026,16.829 -0.026,15.103 1.039,14.039 L14.203,0.874 C15.267,-0.19 16.993,-0.19 18.058,0.874 L31.525,14.342 C32.589,15.406 34.315,15.406 35.38,14.342 L48.789,0.933 C49.842,-0.12 51.546,-0.133 52.615,0.904 L66.603,14.486 C67.693,15.545 67.707,17.293 66.631,18.369 L36,49 Z" id="path42"></path>
                                    </g>
                                </g>
                            </g>
                        </g>
                    </g>
                </g>
            </g>
        </g>
        <g id="digihub_logo_dwnrw" transform="translate(0.000000, 146.000000)" fill-rule="nonzero">
            <polygon id="Shape" fill="#FFFFFF" points="0 0 37 0 37 36 0 36"></polygon>
            <path d="M37.2135341,36.2090469 L0.786123452,36.2090469 L0.786123452,0.790953139 L37.2135341,0.790953139 L37.2135341,36.2090469 Z M38,0 L0,0 L0,37 L38,37 L38,0 Z" id="Shape" fill="#000206"></path>
            <path d="M17.9843374,15 C17.2919663,15.8260474 16.9505427,16.6915333 16.3528576,17.3742612 C14.9727667,18.9512299 13.1629892,19.8670651 11.3467886,20.6704951 C5.66008723,23.185689 3.72428315,28.4172469 2,34 C6.59365865,33.714725 10.352308,31.7228005 13.4752871,28.4881679 C17.0113411,24.826191 18.1486814,20.2248522 17.9847804,15" id="Shape" fill="#048E2F"></path>
            <path d="M22.4782688,32.7793036 C23.0033479,32.7212882 23.185712,32.381484 23.3194149,31.9762725 C23.7138035,30.7801257 22.9576989,29.7033696 21.6586728,29.6935137 C21.0793711,29.6892577 20.8024649,29.5856589 20.6889218,28.9644017 C20.562634,28.2735933 19.9126575,28.0619157 19.2592052,28.0507158 C18.617339,28.0395159 17.9047979,28.1669705 17.749545,28.849267 C17.5757545,29.6086186 17.1864638,29.7175934 16.4889846,29.7066175 C15.6014944,29.6927297 15.1195154,30.2654913 15.0303029,31.0799464 C14.9457249,31.8577778 14.9677384,32.6076095 16.0568255,32.7963274 C16.5527078,32.8821185 16.5017292,33.2064669 16.0939008,33.4172485 C15.6768036,33.6334062 15.5342954,33.9492427 15.6791208,34.3613981 C15.8308979,34.7948333 16.1610998,35.007631 16.6535063,34.9997911 C17.469163,34.9852312 18.2859784,34.9964311 19.1027938,34.9964311 C19.9844909,34.9975511 20.8661881,34.9941911 21.7478853,34.9986711 C22.1835201,35.0009111 22.5334183,34.8407528 22.6608647,34.4285974 C22.7744078,34.0590015 22.7848353,33.6972455 22.3399316,33.4463682 C21.8208773,33.1540514 21.8058154,32.8572547 22.473171,32.7833355 M19.2290815,34.4061976 C18.0032792,34.4241174 17.0138319,33.469888 16.9952943,32.2524614 C16.9767566,31.020475 17.9001635,30.0908853 19.1676756,30.0651256 C20.4977522,30.0382459 21.4929925,30.9420759 21.5103716,32.1919821 C21.526592,33.4239685 20.5336689,34.3882778 19.2279229,34.4073176 M31.2426398,31.656628 C29.8998185,30.9375959 28.5396182,30.2454436 27.3335121,29.3180938 C26.626764,28.7737798 25.9547741,28.1869063 25.5944484,27.1352379 C26.8457401,27.1352379 27.9533649,27.1643576 29.0598311,27.126278 C29.9531143,27.0949184 30.435325,26.4845251 30.7942603,25.7733329 C30.9193895,25.5258157 30.8962174,25.2782984 30.6430626,25.0946204 C30.3163365,24.8571831 30.1694256,25.1170202 30.0259905,25.3219779 C29.5092534,26.0587058 28.7507157,26.2739674 27.8925382,26.2600796 C27.0421233,26.2455197 26.1928671,26.1962403 25.3424522,26.1850404 C24.2904403,26.1716005 23.2384285,26.1816804 22.0710197,26.1816804 C24.6338504,30.6866067 29.1720998,33.2420825 34,33.7135973 C33.2805073,32.7582478 32.2632536,32.2030699 31.242524,31.65618" id="Shape" fill="#DF0023"></path>
            <path d="M32,2.00318897 C32,2.00318897 32.9882931,2.38545417 32.9908058,3.74992285 L32.9796128,5 C32.9796128,5 34.2273999,4.74591091 34.2273999,4.08517642 L34.2273999,3.29307684 C34.2273999,3.29307684 35.9908629,3.29204814 35.9908629,3.29101944 L36,2 L32,2.00318897 Z" id="Shape" fill="#DD0124"></path>
            <path d="M28,7.53815804 C28.0167695,7.92704832 28.34617,7.97686898 28.8237408,8 C29.3495838,7.96218968 29.9425046,7.86988801 30,7.52225546 C29.9496916,7.16161171 29.4058813,7.08076434 28.8464994,7.00770146 C28.4572079,6.95687994 27.9852668,7.16027723 28.0020363,7.53815804" id="Shape" fill="#D51E32"></path>
            <path d="M21.9472763,29.1335519 C22.1600738,29.1648573 22.5729459,29.3500067 22.4201596,28.8615299 C22.2787449,28.4080481 22.1454369,28.0357369 21.5847324,28.0077856 C21.3544833,28.0251154 20.962328,27.8754083 21.1127499,28.3847926 C21.175801,28.8652195 21.5113229,29.0695993 21.948177,29.1335519 M16.4323314,28.0123696 C15.9065302,28.0193015 15.8108277,28.4206821 15.6498222,28.8125592 C15.4043732,29.4093752 15.8187091,29.1507699 16.0664098,29.1573664 C16.5190267,29.0893888 16.8140158,28.9069228 16.9491253,28.371376 C17.0628424,27.9230373 16.6901654,28.0089036 16.4334573,28.0124814 M23.7113561,32.6103574 C23.3533159,32.7784005 23.0099126,32.9150265 22.9930239,33.3522965 C22.9828907,33.623424 22.990772,33.9967415 23.3814637,33.9784055 C23.8329546,33.9571625 24.0097229,33.6176102 23.9995897,33.1145987 C23.9241535,32.8459309 23.7699035,32.5843067 23.7136079,32.6103574 M14.3291267,32.6190782 C14.1658694,32.5486409 14.0465227,32.6556384 14.0093676,33.0964862 C13.9553238,33.5765777 14.1343439,33.9050613 14.5666943,33.9719208 C14.9686451,34.0345317 15.0575922,34.0414636 15.0136816,33.4523621 C14.9810301,33.0062595 14.7029297,32.780413 14.3302527,32.6194136 M19.0410708,31.0351343 C18.6533707,31.0338999 18.2820753,31.1903842 18.0136236,31.4681572 C17.7451718,31.7459301 17.6029866,32.1207553 17.6201691,32.5053723 C17.6179913,32.8904204 17.7712181,33.2602917 18.0456183,33.5323559 C18.3200185,33.8044202 18.6927263,33.9560062 19.0804777,33.9532493 C19.4789313,33.9582269 19.8624517,33.802858 20.1436925,33.5225277 C20.4249333,33.2421973 20.5799499,32.8607725 20.5734378,32.4651224 C20.5621787,31.6254656 19.9114012,31.0183635 19.0410708,31.0362523" id="Shape" fill="#048E2F"></path>
            <path d="M23.2190415,9.31938906 C24.0096357,8.63021885 24.8025941,7.94172518 25.6275276,7.29540259 C26.992434,6.22590334 28.4574312,4.81362308 30.2466824,4.37894521 L30.2637958,2 L19.0736578,2 C19.0837907,5.62062426 19.0590213,10.668751 19.0511401,14.0852852 L20.9088449,14.0852852 C20.9088449,14.0852852 25.114013,18.2764594 25.1162648,18.2685664 C24.3743087,19.1537082 23.8732914,20.1843063 23.3801552,21.3738917 C22.5548839,19.9170724 21.5483457,18.1219825 20.7681097,16.7745374 C20.6273745,16.6189329 19.794222,16.6020194 19.2751906,17.2841987 C19.0500142,17.5796218 19.0443848,17.7758188 19.0173637,18.1276203 C18.8946426,19.7400441 19.4440728,21.2070114 19.9833702,22.6762339 C20.5159122,23.984214 20.5159122,24 20.5159122,24 C20.5159122,24 23.9352149,22.848752 23.9352149,22.832966 C23.886802,21.8564912 24.7852555,20.5158116 25.0171872,20.0298293 C25.6837091,18.6271334 26.8861508,17.7194403 28.0615712,16.7982164 C29.586015,15.6029932 31.2669564,14.3886013 32.0145418,12.2135206 C32.650665,12.2135206 34.2888228,11.7173902 34.8900437,10.4082825 C34.9654777,10.1207524 35.1456188,9.84337041 34.7707002,9.65506637 C34.3811451,9.45886936 34.277564,9.77458869 34.1424582,10.0260366 C33.6313079,10.9777049 32.821799,11.3340167 31.7724773,11.2866588 C30.7873308,11.2426836 29.7999326,11.2776383 28.815912,11.2280252 C28.2766146,11.2009636 27.9456054,11.3712265 27.655128,11.8436779 C27.0032425,12.9013377 26.2601606,13.1392548 25.1556706,12.7479883 C24.9091025,12.6600379 24.6174992,12.555174 24.6174992,12.2744093 C24.6163733,11.9530521 24.9642707,11.9541797 25.1950765,11.8786326 C25.3184816,11.8489102 25.4454549,11.8367632 25.5722468,11.8425504 C25.846962,11.8357849 26.1261806,11.7782789 26.103663,11.445646 C26.0788936,11.0746758 25.742255,11.0487417 25.4574069,11.0261904 C24.9789072,10.987853 24.733465,11.3678438 24.4249734,11.6328225 C24.1074748,11.9045667 23.7494444,12.0545333 23.4004211,11.7444518 C23.058153,11.4400082 23.0446425,11.1073753 23.4409528,10.7815079 C23.7561997,10.5223925 23.6717586,10.2639537 23.2990917,10.1568346 C22.5406978,9.93831172 22.8746343,9.60432576 23.2105974,9.31138332" id="Shape" fill="#DE0022"></path>
            <path d="M2,18 C4.33021852,16.4915442 6.697416,15.3978301 8.72614721,13.7254845 C9.60366765,13.0259647 10.3005976,12.1166726 10.755966,11.0771578 C11.8755585,8.43853084 12.8916099,4.74298137 14,2 L2,2 L2,18 Z" id="Shape" fill="#048E2F"></path>
            <path d="M0.550660145,44.9381987 L0.802142731,42.9353943 L0,42.9353943 L0,42.3326471 L0.888860864,42.3326471 L1.07256638,40.8502052 L0.231628697,40.8502052 L0.231628697,40.2470961 L1.15015629,40.2470961 L1.40118247,38.2954354 L1.9716965,38.2954354 L1.72032802,40.2470961 L2.73515838,40.2470961 L2.97705633,38.2954354 L3.54734216,38.2954354 L3.30567241,40.2470961 L4.09823051,40.2470961 L4.09823051,40.8502052 L3.21849787,40.8502052 L3.04471929,42.3326471 L3.87584414,42.3326471 L3.87584414,42.9345499 L2.95765885,42.9345499 L2.70629037,44.9368719 L2.1261917,44.9368719 L2.37756018,42.9333437 L1.37231446,42.9333437 L1.13075881,44.9356657 L0.550660145,44.9381987 Z M2.46462062,42.3327678 L2.64832614,40.8510495 L1.64308042,40.8510495 L1.4593749,42.3326471 L2.46462062,42.3327678 Z M5.08373645,38.1532222 C5.67479038,38.0497597 6.27296924,37.9985194 6.87206973,38.0000326 C8.08041846,38.0000326 8.94075362,38.3064119 9.51081124,38.8584979 C10.0995817,39.4203543 10.4384671,40.2173026 10.4384671,41.3312449 C10.4384671,42.4551989 10.0995817,43.3748195 9.50054199,44.0085665 C8.88210478,44.6522044 7.87685905,44.9997159 6.6103179,44.9997159 C6.09998361,45.003127 5.58987947,44.9758224 5.08248132,44.9179343 L5.08373645,38.1532222 Z M5.92467413,44.2434171 C6.20717307,44.2752752 6.49124122,44.2889708 6.77531055,44.2844286 C8.58269901,44.2844286 9.5496062,43.2217505 9.5496062,41.3617622 C9.55873442,39.7369865 8.68927103,38.7051876 6.91040828,38.7051876 C6.57967709,38.6996091 6.24929122,38.7303312 5.92456003,38.7968602 L5.92467413,44.2434171 Z M12.4875253,44.9381987 L10.8345179,38.0512968 L11.7237211,38.0512968 L12.4971099,41.5356989 C12.6910847,42.3940436 12.8645209,43.252509 12.9809058,43.9167733 L13.0003033,43.9167733 C13.1064189,43.2321239 13.3095219,42.4145493 13.5320224,41.5255666 L14.4026268,38.0514174 L15.2823594,38.0514174 L16.0753739,41.5458311 C16.2590794,42.3636469 16.4336567,43.1811009 16.5295031,43.9063998 L16.5489006,43.9063998 C16.6846829,43.1503424 16.8683884,42.3841527 17.0714914,41.5255666 L17.9318266,38.0514174 L18.7921617,38.0514174 L16.9459783,44.9385606 L16.0662457,44.9385606 L15.2447055,41.3521125 C15.0637767,40.6115882 14.9216922,39.8610611 14.819102,39.1039633 L14.8008456,39.1039633 C14.6763529,39.8632847 14.5086984,40.6139875 14.2987932,41.3519919 L13.3711374,44.9380781 L12.4875253,44.9381987 Z M19.5045056,44.9381987 L19.5045056,38.0511762 L20.4325037,38.0511762 L22.510544,41.5355783 C22.9432723,42.2539696 23.3305469,43.0018511 23.6698285,43.7743189 L23.6983542,43.7646692 C23.6207643,42.8455311 23.6013668,42.0072095 23.6013668,40.9348817 L23.6013668,38.0520206 L24.3932403,38.0520206 L24.3932403,44.9395256 L23.5431744,44.9395256 L21.4744905,41.4451119 C21.0245525,40.7075389 20.6209017,39.9395371 20.2661418,39.1460603 L20.2364751,39.1569163 C20.2843982,40.0253933 20.2946675,40.8528588 20.2946675,41.9975598 L20.2946675,44.9407318 L19.5045056,44.9381987 Z M25.5743185,38.1429694 C26.1077737,38.0483095 26.6477268,38.0005006 27.188645,38.0000326 C28.0875469,38.0000326 28.6772302,38.1838602 29.073281,38.5621302 C29.4123485,38.9054114 29.5984229,39.3841633 29.5856026,39.8802852 C29.5856026,40.7795208 29.044413,41.3822679 28.3678975,41.6276127 L28.3678975,41.65813 C28.8608216,41.8421989 29.1603415,42.3324059 29.3149508,43.0479344 C29.5277525,44.008084 29.6823618,44.6727101 29.8175736,44.9380781 L28.9477679,44.9380781 C28.8414241,44.733021 28.6963995,44.1504177 28.5225068,43.2927967 C28.3292166,42.3422969 27.9713902,41.9852563 27.2078142,41.9538947 L26.4152561,41.9538947 L26.4152561,44.9368719 L25.5743185,44.9368719 L25.5743185,38.1429694 Z M26.4152561,41.2801013 L27.2755913,41.2801013 C28.1747214,41.2801013 28.744779,40.7590151 28.744779,39.9720784 C28.744779,39.0830957 28.1359265,38.6946935 27.2466092,38.6946935 C26.9678398,38.6852133 26.6889504,38.7090872 26.4152561,38.7658604 L26.4152561,41.2801013 Z M31.7022097,44.9381987 L30.0493164,38.0511762 L30.9381773,38.0511762 L31.7106533,41.5355783 C31.903487,42.3944055 32.0780643,43.2532327 32.1933082,43.9166527 L32.2127056,43.9166527 C32.3188213,43.232727 32.5219243,42.4149112 32.7444247,41.5259285 L33.6138881,38.0520206 L34.4924797,38.0520206 L35.2843532,41.5464342 C35.4680587,42.3642501 35.641495,43.1820659 35.7384824,43.9070029 L35.7578798,43.9070029 C35.8925212,43.1507042 36.0762267,42.3847558 36.2793297,41.5259285 L37.1396648,38.0520206 L38,38.0520206 L36.1538166,44.9395256 L35.2740839,44.9395256 L34.4525437,41.3534393 C34.2715128,40.6128584 34.1294273,39.862245 34.0269403,39.1050489 L34.0075428,39.1050489 C33.8826888,39.8645176 33.7146531,40.615342 33.5043494,41.3534393 L32.5801167,44.9407318 L31.7022097,44.9381987 Z" id="Shape" fill="#000206"></path>
        </g>
    </g>
</svg>