<?xml version="1.0" encoding="utf-8"?>
<!-- Generator: Adobe Illustrator 28.1.0, SVG Export Plug-In . SVG Version: 6.00 Build 0)  -->
<svg version="1.1" id="Ebene_1" xmlns="http://www.w3.org/2000/svg" xmlns:xlink="http://www.w3.org/1999/xlink" x="0px" y="0px"
	 viewBox="0 0 419.6 185.9" style="enable-background:new 0 0 419.6 185.9;" xml:space="preserve">
<style type="text/css">
	.st0{fill:#FFFFFF;}
</style>
<g id="Artboard">
	<g id="text-center" transform="translate(38.000000, -9.000000)">
		
			<g id="g10" transform="translate(225.000000, 106.000000) scale(-1, 1) rotate(-180.000000) translate(-225.000000, -106.000000) ">
			<g id="g12">
				<g id="path16">
				</g>
				<g transform="translate(14.000000, 16.000000)">
					<g>
						
							<g id="text22" transform="translate(105.939900, 20.564500) scale(-1, 1) rotate(-180.000000) translate(-105.939900, -20.564500) translate(0.439900, 0.564500)">
							<path id="path44" class="st0" d="M-36.4,1c3.9,0,7.3,0.8,10.3,2.4c3,1.6,5.4,3.8,7,6.7c1.7,2.8,2.5,6.1,2.5,9.8
								s-0.9,7-2.6,9.8c-1.7,2.8-4.1,5.1-7.1,6.7c-3.1,1.6-6.6,2.4-10.5,2.4h-15.7V1H-36.4z M-36.2,31.6c2.1,0,4-0.5,5.6-1.5
								c1.7-1,3-2.4,3.9-4.2c0.9-1.8,1.4-3.8,1.4-6.1s-0.5-4.3-1.5-6.1c-1-1.8-2.3-3.2-4.1-4.2c-1.7-1-3.6-1.5-5.8-1.5h-7.4v23.5
								H-36.2z"/>
							<polygon id="path46" class="st0" points="-10.9,1 -2.3,1 -2.3,38.8 -10.9,38.8 							"/>
							<path id="path48" class="st0" d="M31.4,19.8h7.4v14.7c-2,1.5-4.4,2.7-7.2,3.6c-2.8,0.9-5.5,1.4-8.1,1.4
								c-3.8,0-7.2-0.8-10.3-2.5c-3.1-1.7-5.5-4.1-7.2-7c-1.8-3-2.6-6.3-2.6-10c0-3.6,0.9-6.9,2.7-9.9c1.8-3,4.3-5.3,7.4-7
								c3.2-1.7,6.7-2.5,10.5-2.5c2.8,0,5.5,0.5,8.2,1.5c2.7,1,5,2.4,7,4.1l-4.8,6.1c-1.4-1.3-3-2.4-4.9-3.1
								c-1.8-0.8-3.7-1.1-5.5-1.1c-2.2,0-4.2,0.5-6.1,1.6c-1.8,1-3.2,2.5-4.3,4.3c-1,1.8-1.6,3.8-1.6,6.1s0.5,4.3,1.6,6.2
								c1.1,1.8,2.5,3.3,4.3,4.4c1.8,1,3.9,1.6,6.1,1.6c1.1,0,2.3-0.2,3.6-0.5c1.3-0.4,2.6-0.9,3.8-1.6V19.8z"/>
							<polygon id="path50" class="st0" points="46.3,1 54.8,1 54.8,38.8 46.3,38.8 							"/>
							<polygon id="path52" class="st0" points="59.5,1 91.1,1 91.1,8.2 79.5,8.2 79.5,38.8 71,38.8 71,8.2 59.5,8.2 							"/>
							<path id="path54" class="st0" d="M119.7,38.8l-3-7.4H99.2l-3,7.4h-8.8L103.9,1h8.8l16.2,37.8H119.7z M102,24.6H114L108,9.9
								L102,24.6z"/>
							<polygon id="path56" class="st0" points="132.8,1 141.3,1 141.3,31.4 157.5,31.4 157.5,38.8 132.8,38.8 							"/>
						</g>
						
							<g id="text26" transform="translate(318.490920, 20.064500) scale(-1, 1) rotate(-180.000000) translate(-318.490920, -20.064500) translate(216.490920, 0.564500)">
							<polygon id="path59" class="st0" points="-51.9,0 -47.5,0 -47.5,17.1 -24.7,17.1 -24.7,0 -20.4,0 -20.4,37.8 -24.7,37.8 
								-24.7,21.1 -47.5,21.1 -47.5,37.8 -51.9,37.8 							"/>
							<path id="path61" class="st0" d="M-5.4,22.4c0,3.7,1,6.6,3.1,8.6c2.1,2.1,4.9,3.1,8.4,3.1s6.4-1,8.4-3.1
								c2.1-2.1,3.1-5,3.1-8.7V0h4.3v22.4c0,4.9-1.4,8.8-4.2,11.6c-2.8,2.8-6.6,4.2-11.6,4.2S-2.7,36.8-5.6,34
								c-2.8-2.8-4.2-6.7-4.2-11.6V0h4.3V22.4z"/>
							<path id="path63" class="st0" d="M48.5,0c3.8,0,6.8,0.8,9,2.5c2.2,1.7,3.3,4,3.3,6.9c0,2.2-0.6,4.1-1.9,5.6
								c-1.2,1.5-2.9,2.5-5.1,3c2.7,0.4,4.9,1.4,6.4,3.1c1.5,1.7,2.3,3.8,2.3,6.4c0,3.2-1.2,5.7-3.6,7.6c-2.4,1.8-5.8,2.7-10.1,2.7
								H32.5V0H48.5z M48.3,16.4c2.6,0,4.5-0.5,5.9-1.6c1.4-1.1,2.1-2.7,2.1-4.6c0-1.9-0.7-3.4-2.1-4.5C52.8,4.5,50.8,4,48.3,4H36.9
								v12.4H48.3z M48.3,33.8c3.1,0,5.5-0.5,7.2-1.7S58,29.2,58,27c0-2.1-0.9-3.8-2.6-4.9c-1.7-1.2-4.1-1.8-7.1-1.7H36.9v13.5H48.3
								z"/>
							<path id="path65" class="st0" d="M71.1,32.7c0.7,0,1.3,0.3,1.8,0.8c0.5,0.5,0.8,1.2,0.8,1.9c0,0.8-0.3,1.5-0.8,2
								c-0.5,0.5-1.1,0.8-1.8,0.8c-0.8,0-1.4-0.3-1.9-0.8c-0.5-0.5-0.8-1.2-0.8-2c0-0.8,0.3-1.4,0.8-1.9
								C69.7,33,70.3,32.7,71.1,32.7z"/>
							<path id="path67" class="st0" d="M97.2,0c3.6,0,6.9,0.8,9.9,2.5s5.3,3.9,7,6.8c1.7,2.9,2.6,6.1,2.6,9.6s-0.9,6.7-2.6,9.6
								c-1.7,2.9-4,5.2-7,6.8c-3,1.7-6.3,2.5-10,2.5H81.9V0H97.2z M97.2,33.8c2.8,0,5.3-0.6,7.6-1.9c2.3-1.3,4.1-3.1,5.5-5.4
								s2-4.8,2-7.6c0-2.8-0.7-5.4-2.1-7.6c-1.3-2.3-3.2-4.1-5.5-5.4c-2.3-1.3-4.9-2-7.7-2H86.2v29.8H97.2z"/>
							<polygon id="path69" class="st0" points="124.8,0 150.4,0 150.4,4 129.1,4 129.1,16.7 148.2,16.7 148.2,20.6 129.1,20.6 
								129.1,33.8 151.1,33.8 151.1,37.8 124.8,37.8 							"/>
						</g>
					</g>
					<g id="Group" transform="translate(124.000000, 68.000000)">
						<g id="g28" transform="translate(0.765100, 25.808100)">
							<path id="path30" class="st0" d="M22.7,32.2L-8.5,1.1c-1.1-1.1-2.8-1.1-3.9,0l-13.2,13.2c-1.1,1.1-1.1,2.8,0,3.9L-12,31.6
								c1.1,1.1,1.1,2.8,0,3.9l-13.4,13.4c-1.1,1.1-1.1,2.8,0,3.8l13.6,14c1.1,1.1,2.8,1.1,3.9,0L22.7,36
								C23.7,35,23.7,33.2,22.7,32.2"/>
						</g>
						<g id="g32" transform="translate(69.675800, 25.721200)">
							<path id="path34" class="st0" d="M22.7,18.2L9.2,31.6c-1.1,1.1-1.1,2.8,0,3.9l13.4,13.4c1.1,1.1,1.1,2.8,0,3.8L9,66.7
								c-1.1,1.1-2.8,1.1-3.9,0l-30.6-30.6c-1.1-1.1-1.1-2.8,0-3.9L5.6,1.2c1.1-1.1,2.8-1.1,3.9,0l13.2,13.2
								C23.7,15.4,23.7,17.1,22.7,18.2"/>
						</g>
						<g id="g36" transform="translate(25.716300, 68.904800)">
							<path id="path38" class="st0" d="M5.7,1.2c1.1-1.1,2.8-1.1,3.9,0l30.6,30.6c1.1,1.1,1.1,2.8,0,3.9l-14,13.6
								c-1.1,1-2.8,1-3.8,0L8.9,35.8c-1.1-1.1-2.8-1.1-3.9,0L-8.4,49.3c-1.1,1.1-2.8,1.1-3.9,0l-13.2-13.2c-1.1-1.1-1.1-2.8,0-3.9
								L5.7,1.2z"/>
						</g>
						<g id="g40" transform="translate(25.571300, 0.120100)">
							<path id="path42" class="st0" d="M9.7,49.2c-1.1,1.1-2.8,1.1-3.9,0l-31.1-31.1c-1.1-1.1-1.1-2.8,0-3.9L-12.1,1
								C-11.1,0-9.4,0-8.3,1L5.2,14.5c1.1,1.1,2.8,1.1,3.9,0L22.4,1.1c1.1-1.1,2.8-1.1,3.8,0l14,13.6c1.1,1.1,1.1,2.8,0,3.9
								L9.7,49.2z"/>
						</g>
					</g>
				</g>
			</g>
		</g>
	</g>
</g>
</svg>
