<?xml version="1.0" encoding="utf-8"?>
<!-- Generator: Adobe Illustrator 14.0.0, SVG Export Plug-In . SVG Version: 6.00 Build 43363)  -->
<!DOCTYPE svg PUBLIC "-//W3C//DTD SVG 1.1//EN" "http://www.w3.org/Graphics/SVG/1.1/DTD/svg11.dtd">
<svg version="1.1" id="Ebene_1" xmlns="http://www.w3.org/2000/svg" xmlns:xlink="http://www.w3.org/1999/xlink" x="0px" y="0px"
	 width="1024px" height="184px" viewBox="0 0 1024 184" enable-background="new 0 0 1024 184" xml:space="preserve">
<path fill-rule="evenodd" clip-rule="evenodd" d="M384.636,110.352h13.999c5.049,0,14.116-1.49,14.116-11.595
	c0-4.932-3.727-8.607-9.179-9.123v-0.112c4.763-0.863,7.974-4.191,7.974-8.955c0-8.781-7.744-10.272-12.911-10.272h-13.999
	 M392.667,76.61h3.099c3.676,0,7.75,0.342,7.75,4.993c0,4.13-4.191,4.875-7.576,4.875h-3.272V76.61z M392.667,92.447h3.788
	c4.018,0,8.266,0.801,8.266,6.024c0,4.65-4.533,5.564-8.266,5.564h-3.788V92.447z"/>
<path fill-rule="evenodd" clip-rule="evenodd" d="M425.416,94.856c0-4.421,2.41-8.781,7.403-8.781c5.049,0,7.458,4.248,7.458,8.781
	c0,4.938-1.552,10.216-7.458,10.216C426.962,105.072,425.416,99.732,425.416,94.856 M417.38,95.775
	c0,8.49,5.682,15.266,15.439,15.266c9.813,0,15.489-6.775,15.489-15.266c0-9.756-6.714-15.668-15.489-15.668
	C424.093,80.107,417.38,86.019,417.38,95.775z"/>
<path d="M454.601,110.352h7.689V95.888c0-3.788,1.205-9.813,6.775-9.813c4.932,0,4.988,4.881,4.988,8.496v15.78h7.694V91.702
	c0-6.658-3.042-11.595-10.042-11.595c-4.018,0-7.291,1.323-9.701,4.708h-0.112v-4.018h-7.291"/>
<path d="M489.929,110.352h7.688V95.888c0-3.788,1.205-9.813,6.775-9.813c4.931,0,4.987,4.881,4.987,8.496v15.78h7.691V91.702
	c0-6.658-3.037-11.595-10.04-11.595c-4.018,0-7.291,1.323-9.7,4.708h-0.112v-4.018h-7.291"/>
<rect x="523.303" y="91.758" width="15.098" height="6.31"/>
<path fill-rule="evenodd" clip-rule="evenodd" d="M544.632,110.352h8.036V93.708h2.577c3.385,0,4.428,1.148,5.57,4.13l4.819,12.514
	h8.956l-6.434-15.669c-0.796-1.776-2.063-3.956-4.248-4.13v-0.117c5.11-0.684,8.271-4.59,8.271-9.292
	c0-11.135-10.277-10.85-18.886-10.85h-8.663 M552.668,76.61h2.634c4.023,0,8.495,0.398,8.495,5.217c0,4.993-4.527,5.57-8.495,5.57
	h-2.634V76.61z"/>
<path d="M579.959,110.352h7.688V95.888c0-3.788,1.211-9.813,6.77-9.813c4.942,0,4.999,4.881,4.999,8.496v15.78h7.688V91.702
	c0-6.658-3.037-11.595-10.042-11.595c-4.013,0-7.342,1.838-9.292,4.708h-0.123V67.313h-7.688"/>
<path fill-rule="evenodd" clip-rule="evenodd" d="M638.991,102.434c-2.869,1.603-6.086,2.981-9.818,2.981
	c-4.764,0-8.092-2.696-8.429-7.459h20.421c0-10.329-3.093-17.849-14.055-17.849c-9.179,0-13.718,7.061-13.718,15.613
	c0,9.695,5.682,15.321,15.444,15.321c4.124,0,7.341-0.807,10.154-2.354 M620.744,92.677c0.337-3.962,2.522-6.943,6.826-6.943
	s6.029,3.211,6.254,6.943H620.744z"/>
<path fill-rule="evenodd" clip-rule="evenodd" d="M647.633,75.405h7.688v-7.347h-7.688 M647.633,110.352h7.688V80.796h-7.688
	V110.352z"/>
<path d="M663.682,110.352h7.689V95.888c0-3.788,1.199-9.813,6.77-9.813c4.932,0,4.987,4.881,4.987,8.496v15.78h7.7V91.702
	c0-6.658-3.049-11.595-10.043-11.595c-4.023,0-7.296,1.323-9.706,4.708h-0.112v-4.018h-7.285"/>
<rect x="697.06" y="91.758" width="15.085" height="6.31"/>
<path d="M741.341,71.04c-2.926-0.975-6.142-1.435-9.583-1.435c-7.061,0-14.01,3.272-14.01,12.222
	c0,13.259,17.563,10.104,17.563,17.737c0,3.614-4.068,5.161-7.115,5.161c-3.15,0-6.311-0.976-9.068-2.466l-0.74,7.229
	c3.957,0.976,5.908,1.553,10.267,1.553c8.092,0,15.041-3.329,15.041-12.11c0-13.427-17.562-10.501-17.562-17.445
	c0-4.36,3.552-5.565,6.309-5.565c2.813,0,5.627,0.628,8.148,1.72"/>
<path fill-rule="evenodd" clip-rule="evenodd" d="M750.722,75.405h7.7v-7.347h-7.7 M750.722,110.352h7.7V80.796h-7.7V110.352z"/>
<path fill-rule="evenodd" clip-rule="evenodd" d="M790.477,102.434c-2.869,1.603-6.086,2.981-9.818,2.981
	c-4.764,0-8.092-2.696-8.429-7.459h20.421c0-10.329-3.093-17.849-14.055-17.849c-9.179,0-13.719,7.061-13.719,15.613
	c0,9.695,5.683,15.321,15.445,15.321c4.124,0,7.341-0.807,10.154-2.354 M772.229,92.677c0.337-3.962,2.522-6.943,6.826-6.943
	s6.029,3.211,6.254,6.943H772.229z"/>
<path fill-rule="evenodd" clip-rule="evenodd" d="M818.742,80.796v4.018h-0.111c-2.13-3.385-5.167-4.708-9.067-4.708
	c-8.843,0-12.508,8.205-12.508,15.322c0,7.918,3.328,14.923,12.048,14.923c4.304,0,7.745-2.18,9.18-4.707h0.112
	c0,5.105-0.404,11.477-8.889,11.477c-2.409,0-6.254-1.322-8.607-2.583l-0.639,6.545c3.676,1.547,7.173,2.007,10.222,2.007
	c12.396,0,15.602-7.577,15.602-15.607V80.796 M811.626,104.384c-4.416,0-6.546-4.938-6.546-8.955c0-4.534,1.67-9.354,6.893-9.354
	c4.473,0,6.423,4.13,6.423,9.185C818.396,100.191,816.445,104.384,811.626,104.384z"/>
<polyline points="384.636,50.098 392.667,50.098 392.667,32.535 408.738,32.535 408.738,50.098 416.769,50.098 416.769,10.041 
	408.738,10.041 408.738,26.225 392.667,26.225 392.667,10.041 384.636,10.041 "/>
<path fill-rule="evenodd" clip-rule="evenodd" d="M431.782,34.603c0-4.421,2.41-8.781,7.403-8.781c5.049,0,7.465,4.248,7.465,8.781
	c0,4.937-1.553,10.216-7.465,10.216C433.334,44.819,431.782,39.479,431.782,34.603 M423.751,35.522
	c0,8.49,5.683,15.265,15.433,15.265c9.813,0,15.495-6.775,15.495-15.265c0-9.756-6.713-15.668-15.495-15.668
	C430.465,19.854,423.751,25.766,423.751,35.522z"/>
<path d="M480.828,20.829c-2.124-0.628-4.36-0.975-7.458-0.975c-9.241,0-14.291,6.775-14.291,15.321
	c0,9.011,4.875,15.612,14.576,15.612c3.155,0,5.453-0.292,7.688-0.975l-0.342-6.372c-1.323,0.572-3.732,1.378-5.912,1.378
	c-5.396,0-7.98-4.192-7.98-9.644c0-5.565,3.043-9.353,7.806-9.353c2.354,0,3.844,0.459,5.223,1.093"/>
<path d="M486.717,50.098h7.689V35.634c0-3.789,1.205-9.813,6.77-9.813c4.937,0,4.993,4.881,4.993,8.496v15.78h7.697v-18.65
	c0-6.657-3.046-11.594-10.045-11.594c-4.018,0-7.347,1.838-9.297,4.707h-0.118V7.06h-7.689"/>
<path d="M540.126,20.946c-2.409-0.516-4.764-1.093-8.384-1.093c-6.019,0-11.589,2.813-11.589,9.185
	c0,10.67,13.371,6.714,13.371,12.508c0,2.869-3.104,3.614-5.055,3.614c-2.634,0-5.167-0.745-7.576-1.95l-0.46,6.31
	c2.813,0.746,5.806,1.267,8.731,1.267c6.254,0,12.396-2.757,12.396-9.645c0-10.67-13.371-7.688-13.371-12.396
	c0-2.522,2.466-3.268,4.528-3.268c2.813,0,4.539,0.46,6.893,1.261"/>
<path d="M567.642,20.829c-2.118-0.628-4.36-0.975-7.453-0.975c-9.247,0-14.29,6.775-14.29,15.321c0,9.011,4.875,15.612,14.57,15.612
	c3.16,0,5.458-0.292,7.688-0.975l-0.337-6.372c-1.322,0.572-3.731,1.378-5.917,1.378c-5.392,0-7.969-4.192-7.969-9.644
	c0-5.565,3.037-9.353,7.801-9.353c2.354,0,3.844,0.459,5.223,1.093"/>
<path d="M573.537,50.098h7.688V35.634c0-3.789,1.21-9.813,6.77-9.813c4.942,0,4.999,4.881,4.999,8.496v15.78h7.688v-18.65
	c0-6.657-3.049-11.594-10.042-11.594c-4.024,0-7.353,1.838-9.303,4.707h-0.112V7.06h-7.688"/>
<path d="M636.01,20.542h-7.688v14.464c0,3.783-1.211,9.813-6.77,9.813c-4.943,0-4.999-4.881-4.999-8.496V20.542h-7.688v18.65
	c0,6.658,3.037,11.595,10.042,11.595c4.013,0,7.342-1.838,9.695-4.707h0.123v4.018h7.285"/>
<rect x="644.359" y="7.054" width="7.7" height="43.039"/>
<path fill-rule="evenodd" clip-rule="evenodd" d="M684.114,42.18c-2.869,1.603-6.086,2.981-9.818,2.981
	c-4.764,0-8.092-2.695-8.429-7.458h20.421c0-10.328-3.093-17.849-14.055-17.849c-9.179,0-13.718,7.061-13.718,15.612
	c0,9.695,5.682,15.321,15.444,15.321c4.124,0,7.341-0.807,10.154-2.354 M665.867,32.423c0.337-3.962,2.522-6.943,6.826-6.943
	s6.029,3.211,6.254,6.943H665.867z"/>
<path fill="#009EE0" d="M159.632,54.542c0-29.948,24.276-54.229,54.229-54.229c29.948,0,54.224,24.282,54.224,54.229
	c0,29.947-24.276,54.229-54.224,54.229C183.909,108.771,159.632,84.489,159.632,54.542"/>
<path fill="none" stroke="#009EE0" stroke-width="1.028" stroke-miterlimit="3.864" d="M159.632,54.542
	c0-29.948,24.276-54.229,54.229-54.229c29.948,0,54.224,24.282,54.224,54.229c0,29.947-24.276,54.229-54.224,54.229
	C183.909,108.771,159.632,84.489,159.632,54.542z"/>
<path fill="#009EE0" d="M-0.187,55.113c0-29.947,24.282-54.224,54.229-54.224s54.229,24.276,54.229,54.224
	c0,29.953-24.282,54.229-54.229,54.229S-0.187,85.066-0.187,55.113"/>
<path fill="none" stroke="#009EE0" stroke-width="1.028" stroke-miterlimit="3.864" d="M-0.187,55.113
	c0-29.947,24.282-54.224,54.229-54.224s54.229,24.276,54.229,54.224c0,29.953-24.282,54.229-54.229,54.229
	S-0.187,85.066-0.187,55.113z"/>
<path fill="#FFFFFF" d="M20.189,54.973c0-18.779,15.22-33.999,33.999-33.999c18.773,0,34,15.22,34,33.999c0,18.773-15.226,34-34,34
	C35.409,88.973,20.189,73.747,20.189,54.973"/>
<path fill="none" stroke="#FFFFFF" stroke-width="0.05" stroke-miterlimit="3.864" d="M20.189,54.973
	c0-18.779,15.22-33.999,33.999-33.999c18.773,0,34,15.22,34,33.999c0,18.773-15.226,34-34,34
	C35.409,88.973,20.189,73.747,20.189,54.973z"/>
<path d="M408.582,138.31h-3.48v22.926c0,5.756-3.183,9.896-9.296,9.896c-6.108,0-9.292-4.141-9.292-9.896V138.31h-3.48v22.926
	c0,10.401,7.621,12.929,12.771,12.929c5.15,0,12.777-2.527,12.777-12.929"/>
<path d="M416.864,173.559h3.183v-14.239c0-4.299,1.815-9.393,7.621-9.393c4.394,0,6.108,3.127,6.108,7.975v15.657h3.189v-16.464
	c0-5.655-2.427-9.902-8.793-9.902c-5.346,0-7.268,2.88-8.333,5.206h-0.095v-4.596h-3.082c0.202,2.073,0.202,4.091,0.202,6.058"/>
<path fill-rule="evenodd" clip-rule="evenodd" d="M448.358,136.696h-3.183v4.236h3.183 M445.175,173.559h3.183v-25.756h-3.183
	V173.559z"/>
<polyline points="474.596,147.803 471.262,147.803 463.792,170.073 463.691,170.073 456.568,147.803 453.083,147.803 
	461.825,173.559 465.557,173.559 "/>
<path fill-rule="evenodd" clip-rule="evenodd" d="M480.839,158.859c0-4.242,2.88-8.933,7.577-8.933c4.747,0,6.562,4.438,6.562,8.933
	 M496.547,169.519c-1.513,0.958-4.898,1.916-7.218,1.916c-5.559,0-8.49-4.394-8.49-9.846h17.625v-1.614
	c0-6.921-2.976-12.782-10.25-12.782c-6.512,0-10.855,5.609-10.855,13.488c0,7.723,3.177,13.483,11.712,13.483
	c2.376,0,5.256-0.505,7.476-1.418V169.519z"/>
<path d="M504.773,173.559h3.183v-12.732c0-4.64,1.362-10.3,6.414-10.3c0.807,0,1.67,0.106,2.32,0.309V147.5
	c-0.55-0.151-1.457-0.308-2.22-0.308c-3.281,0-5.455,2.684-6.615,5.559h-0.101v-4.948h-3.178c0.196,1.872,0.196,2.931,0.196,5.756"
	/>
<path d="M519.56,172.953c2.264,0.902,4.741,1.211,7.218,1.211c3.89,0,8.989-1.866,8.989-7.324c0-8.435-12.677-7.829-12.677-12.626
	c0-3.278,2.275-4.293,5.56-4.293c1.76,0,4.034,0.454,5.704,1.211l0.303-2.774c-2.275-0.857-4.998-1.16-6.366-1.16
	c-4.236,0-8.383,1.917-8.383,7.017c0,7.481,12.373,6.518,12.373,12.626c0,2.931-2.679,4.595-5.704,4.595
	c-2.478,0-4.798-0.649-6.714-1.613"/>
<path fill-rule="evenodd" clip-rule="evenodd" d="M544.89,136.696h-3.184v4.236h3.184 M541.706,173.559h3.184v-25.756h-3.184
	V173.559z"/>
<path d="M564.257,147.803h-5.851v-7.324l-3.184,1.115v6.209h-5.043v2.724h5.043v15.053c0,4.695,0.202,8.585,5.862,8.585
	c1.558,0,3.127-0.403,3.878-0.712l-0.19-2.623c-0.908,0.354-1.727,0.605-2.937,0.605c-2.566,0-3.43-1.916-3.43-4.242v-16.666h5.851"
	/>
<path fill-rule="evenodd" clip-rule="evenodd" d="M588.186,147.803h-3.34l-7.42,21.463h-0.101l0.056,0.051l-7.229-21.514h-3.486
	l9.146,26.059l-0.662,2.275c-1.009,3.334-1.916,5.604-4.64,5.604c-1.166,0-1.771-0.207-2.376-0.409l-0.303,2.729
	c1.054,0.252,2.275,0.403,3.43,0.403c3.586,0,5.413-3.53,6.624-7.066"/>
<path fill-rule="evenodd" clip-rule="evenodd" d="M608.651,160.681c0-5.957,2.97-10.754,8.529-10.754
	c5.559,0,8.54,4.797,8.54,10.754s-2.981,10.754-8.54,10.754C611.621,171.435,608.651,166.638,608.651,160.681 M605.166,160.681
	c0,7.017,3.687,13.483,12.015,13.483c8.327,0,12.026-6.467,12.026-13.483c0-7.021-3.699-13.488-12.026-13.488
	C608.853,147.192,605.166,153.659,605.166,160.681z"/>
<path d="M637.612,173.559h3.184v-23.032h5.806v-2.724h-5.806v-2.219c0-3.082-0.448-7.778,3.889-7.778
	c0.908,0,1.872,0.201,2.521,0.549l0.202-2.773c-0.594-0.354-1.961-0.505-2.97-0.505c-6.624,0-6.826,5.458-6.826,10.855v1.871h-5.2
	v2.724h5.2"/>
<path fill-rule="evenodd" clip-rule="evenodd" d="M687.219,161.084H671.92l7.678-19.445 M663.436,173.559h3.385l3.788-9.448h17.776
	l3.788,9.448h3.631l-13.987-35.249h-3.934L663.436,173.559z"/>
<path fill-rule="evenodd" clip-rule="evenodd" d="M718.836,160.681c0,4.999-1.568,10.754-7.633,10.754
	c-5.648,0-7.621-6.058-7.621-10.754c0-4.701,1.973-10.754,7.621-10.754C717.268,149.927,718.836,155.682,718.836,160.681
	 M700.399,184.161h3.183v-15.002h0.102c1.568,3.335,3.988,5.005,8.023,5.005c7.072,0,10.604-5.856,10.604-13.483
	c0-7.828-3.027-13.483-10.604-13.483c-5.447,0-7.42,3.89-8.227,5.302h-0.1l0.201-4.696h-3.183V184.161z"/>
<path fill-rule="evenodd" clip-rule="evenodd" d="M747.146,160.681c0,4.999-1.569,10.754-7.633,10.754
	c-5.648,0-7.621-6.058-7.621-10.754c0-4.701,1.973-10.754,7.621-10.754C745.577,149.927,747.146,155.682,747.146,160.681
	 M728.71,184.161h3.183v-15.002h0.101c1.569,3.335,3.99,5.005,8.025,5.005c7.072,0,10.603-5.856,10.603-13.483
	c0-7.828-3.026-13.483-10.603-13.483c-5.447,0-7.42,3.89-8.227,5.302h-0.102l0.202-4.696h-3.183V184.161z"/>
<rect x="757.323" y="135.682" width="3.183" height="37.877"/>
<path fill-rule="evenodd" clip-rule="evenodd" d="M771.949,136.696h-3.183v4.236h3.183 M768.767,173.559h3.183v-25.756h-3.183
	V173.559z"/>
<path fill-rule="evenodd" clip-rule="evenodd" d="M781.779,158.859c0-4.242,2.88-8.933,7.576-8.933c4.741,0,6.567,4.438,6.567,8.933
	 M797.481,169.519c-1.514,0.958-4.898,1.916-7.218,1.916c-5.56,0-8.484-4.394-8.484-9.846h17.618v-1.614
	c0-6.921-2.97-12.782-10.244-12.782c-6.512,0-10.86,5.609-10.86,13.488c0,7.723,3.184,13.483,11.713,13.483
	c2.376,0,5.256-0.505,7.476-1.418V169.519z"/>
<path fill-rule="evenodd" clip-rule="evenodd" d="M807.681,160.681c0-4.999,1.568-10.754,7.633-10.754
	c5.648,0,7.621,6.053,7.621,10.754c0,4.69-1.973,10.754-7.621,10.754C809.249,171.435,807.681,165.68,807.681,160.681
	 M826.117,135.682h-3.183v16.464h-0.102c-0.448-1.261-2.98-4.953-8.024-4.953c-7.576,0-10.603,5.66-10.603,13.488
	c0,7.627,3.53,13.483,10.603,13.483c3.688,0,6.311-1.418,8.024-4.696h0.102v4.091h3.183V135.682z"/>
<path d="M847.345,172.646c1.861,0.813,4.54,1.519,7.97,1.519c5.458,0,11.566-2.83,11.566-9.953c0-10.3-16.15-10.351-16.15-17.422
	c0-4.545,3.979-6.053,7.621-6.053c2.376,0,4.842,0.454,6.411,1.306l0.561-3.178c-2.433-0.913-5.212-1.165-6.927-1.165
	c-6.209,0-11.163,3.536-11.163,9.196c0,9.235,16.161,10.098,16.161,17.019c0,4.999-3.575,7.218-7.924,7.218
	c-3.283,0-5.704-0.756-7.778-2.073"/>
<path d="M890.82,148.206c-0.907-0.303-3.138-1.009-6.209-1.009c-7.633,0-12.731,5.554-12.731,13.483
	c0,7.168,4.046,13.483,12.317,13.483c2.432,0,4.449-0.151,6.623-0.908l-0.302-2.981c-1.917,0.706-3.789,1.16-5.817,1.16
	c-5.806,0-9.336-4.897-9.336-10.754c0-6.265,3.485-10.76,9.694-10.76c1.715,0,3.789,0.561,5.504,1.317"/>
<path fill-rule="evenodd" clip-rule="evenodd" d="M899.642,136.696h-3.184v4.236h3.184 M896.458,173.559h3.184v-25.756h-3.184
	V173.559z"/>
<path fill-rule="evenodd" clip-rule="evenodd" d="M909.471,158.859c0-4.242,2.881-8.933,7.576-8.933
	c4.741,0,6.557,4.438,6.557,8.933 M925.173,169.519c-1.513,0.958-4.897,1.916-7.218,1.916c-5.56,0-8.484-4.394-8.484-9.846h17.619
	v-1.614c0-6.921-2.981-12.782-10.244-12.782c-6.512,0-10.86,5.609-10.86,13.488c0,7.723,3.183,13.483,11.712,13.483
	c2.376,0,5.257-0.505,7.476-1.418V169.519z"/>
<path d="M933.399,173.559h3.184v-14.239c0-4.299,1.815-9.393,7.621-9.393c4.404,0,6.119,3.127,6.119,7.975v15.657h3.184v-16.464
	c0-5.655-2.433-9.902-8.799-9.902c-5.346,0-7.263,2.88-8.327,5.206h-0.101v-4.596h-3.082c0.201,2.073,0.201,4.091,0.201,6.058"/>
<path d="M978.735,148.206c-0.919-0.303-3.138-1.009-6.209-1.009c-7.633,0-12.732,5.554-12.732,13.483
	c0,7.168,4.047,13.483,12.317,13.483c2.433,0,4.45-0.151,6.624-0.908l-0.303-2.981c-1.916,0.706-3.788,1.16-5.816,1.16
	c-5.806,0-9.336-4.897-9.336-10.754c0-6.265,3.485-10.76,9.694-10.76c1.715,0,3.788,0.561,5.503,1.317"/>
<path fill-rule="evenodd" clip-rule="evenodd" d="M985.931,158.859c0-4.242,2.881-8.933,7.577-8.933
	c4.752,0,6.567,4.438,6.567,8.933 M1001.645,169.519c-1.524,0.958-4.909,1.916-7.229,1.916c-5.548,0-8.484-4.394-8.484-9.846h17.631
	v-1.614c0-6.921-2.981-12.782-10.256-12.782c-6.512,0-10.86,5.609-10.86,13.488c0,7.723,3.194,13.483,11.724,13.483
	c2.365,0,5.245-0.505,7.476-1.418V169.519z"/>
<path d="M1007.596,172.953c2.275,0.902,4.753,1.211,7.218,1.211c3.89,0,9-1.866,9-7.324c0-8.435-12.676-7.829-12.676-12.626
	c0-3.278,2.264-4.293,5.548-4.293c1.771,0,4.046,0.454,5.705,1.211l0.303-2.774c-2.265-0.857-4.999-1.16-6.366-1.16
	c-4.236,0-8.372,1.917-8.372,7.017c0,7.481,12.362,6.518,12.362,12.626c0,2.931-2.668,4.595-5.705,4.595
	c-2.466,0-4.797-0.649-6.714-1.613"/>
</svg>
