<?xml version="1.0" encoding="utf-8"?>
<!-- Generator: Adobe Illustrator 28.1.0, SVG Export Plug-In . SVG Version: 6.00 Build 0)  -->
<svg version="1.1" id="svg5622" xmlns:svg="http://www.w3.org/2000/svg"
	 xmlns="http://www.w3.org/2000/svg" xmlns:xlink="http://www.w3.org/1999/xlink" x="0px" y="0px" viewBox="0 0 997.6 397.3"
	 style="enable-background:new 0 0 997.6 397.3;" xml:space="preserve">
<style type="text/css">
	.st0{fill:#FFFFFF;stroke:#FFFFFF;stroke-width:0.1048;stroke-miterlimit:123.7911;stroke-opacity:0;}
</style>
<path id="path5037" class="st0" d="M776.1,0.2v198.1l-2.5,2.1l-2.5,2.1l-2.4,2.2l-2.3,2.2l-2.2,2.2l-2.2,2.3l-2.1,2.3l-2.1,2.3V0.2
	H536.2v180.4h-18.3V0.2H296.4v180.7h-18.3V0.2H56.6v205.9L0.1,392.8h49.7l25-82.7h7.2l41.3,82.7h60l-40-82.7H234l-25.2,82.7H263
	l24.9-82.5h12v-0.2h17.1h1.4h102.5l-24,82.5h54.8l23.3-82.5h24.6l0.6,82.5H546l52.8-82.5h34.5l-17.9,82.5h53.9l17.6-82.5H718
	l-0.2,4.7l0.1,4.8l0.2,4.6l0.4,4.6l0.3,2.2l0.3,2.2l0.4,2.2l0.4,2.2l0.5,2.2l0.5,2.1l0.6,2.1l0.6,2.1l0.7,2.1l0.7,2l0.8,2l0.8,1.9
	l0.9,2l0.9,1.9l1.1,1.8l1.1,1.9l1.2,1.8l1.3,1.7l1.3,1.8l1.4,1.6l1.4,1.7l1.4,1.6l1.6,1.6l1.6,1.5l2,1.7l2,1.7l2.1,1.6l2.2,1.5
	l2.2,1.5l2.2,1.4l2.3,1.1l2.4,1.3l2.3,1l2.4,1l2.4,0.9l2.5,0.9l2.5,0.8l2.5,0.7l2.5,0.7l2.5,0.6l5.1,1.1l5.2,0.8l5.1,0.7l5.1,0.6
	l4.9,0.4l4.8,0.2l4.7,0.2h4.5l6.1-0.1l6.1-0.1l6.2-0.3l6.2-0.3l6.2-0.5l6.2-0.5l6.2-0.6l6.2-0.7l6.3-0.8l6.3-0.9l6.3-1l6.3-1
	l6.3-1.1l6.3-1.3l6.3-1.3l6.4-1.5l18.7-74.8h61.5V0.2L776.1,0.2L776.1,0.2z M77.2,302.5l0.3-1.1l0.7,1.1
	C78.2,302.5,77.2,302.5,77.2,302.5z M270.1,191.4l-3.2,10.5L237.4,299l-1.2,3.4h-96.9l-7.5-15.9l104.4-105.7h-67.1L87.6,268
	l26.4-87.1H64.5V8h205.6L270.1,191.4L270.1,191.4z M327.3,273.4L327.3,273.4l-1.6,0.1l-1.5,0.1l-1.6,0.1h-1.7h-2.2h-1.9l-1.8,0.1
	h-1.7l-13.2-0.1l6.1-22.3l2.8-11.1l7-26h2.2h2.3l2.2-0.1h2.1h10.2l6.2,0.1l5.7,0.2l2.5,0.1l2.4,0.2l2.3,0.3l2.1,0.3l1.9,0.3l1.8,0.5
	l1.7,0.5l1.5,0.6l1.3,0.6l1.2,0.8l1.1,0.8l0.8,1l0.5,0.8l0.4,0.8l0.4,0.9l0.3,1l0.2,1.1l0.1,1.1v1.3v1.4l-0.1,1.5l-0.1,1.5l-0.3,1.7
	l-0.3,1.7l-0.9,3.5l-1.2,4l-1.2,3.3l-1.3,3.2l-1.4,3l-1.5,2.8l-0.7,1.3l-0.7,1.3l-0.8,1.3l-0.9,1.1l-0.9,1.1l-0.9,1l-1.1,1l-1.1,0.9
	l-1.2,0.8l-1.2,0.9l-1.3,0.7l-1.4,0.8l-1.4,0.7l-1.5,0.6l-1.5,0.6l-1.6,0.5l-1.7,0.6l-1.8,0.4l-1.9,0.4l-1.9,0.4l-2.1,0.3l-2.1,0.3
	l-2.2,0.2L327.3,273.4L327.3,273.4z M477,302.5l21.6-76.2l0.8,76.2H477L477,302.5z M509.9,180.5h-51.4l-35.4,121.9h-54.5l2.5-1
	l2.5-1l2.4-1l2.4-1.1l2.3-1.1l2.2-1.4l2.2-1.3l2.1-1.4l2.1-1.5l2-1.5l1.9-1.5l1.9-1.7l1.8-1.6l1.7-1.8l1.7-1.7l1.6-1.9l1.6-1.8
	l1.5-2l1.4-1.9l1.4-2.1l1.3-2.1l1.2-2.1l1.2-2.2l1.1-2.3l1.1-2.3l0.9-2.3l0.8-2.4l0.8-2.5l0.6-2.5l0.7-2.5l0.5-2.7l0.5-2.6l0.7-4.2
	l0.6-4l0.4-3.8l0.3-3.5l0.1-3.5l-0.1-3.2l-0.1-3.2l-0.4-3l-0.4-2.8l-0.7-2.8l-0.7-2.6l-1.1-2.5l-1.2-2.4l-1.3-2.4l-1.5-2.2l-1.7-2.1
	l-1.4-1.5l-1.4-1.5l-1.5-1.3l-1.6-1.1l-1.7-1.1l-1.7-1l-1.8-0.9l-1.8-0.8l-1.9-0.8l-1.9-0.6l-2-0.6l-2-0.6l-2.1-0.5l-2.1-0.4
	l-2.1-0.4l-2.2-0.3l-4.5-0.6l-4.5-0.3l-4.6-0.3l-4.7-0.1h-9.5h-9.4h-2.9H337h-6.5h-7.3h-7.1h-6h-4.2h-1.6V8h205.6L509.9,180.5
	L509.9,180.5z M634.7,302.5h-30.9l46.8-73.1L634.7,302.5z M749.6,184l-0.1,42.3l-2.6,3.7l-2.4,3.8l-2.4,3.8l-2.2,3.8l-2.1,3.8
	l-2.1,3.9l-1.8,3.8l-1.8,3.8l-1.7,3.7l-1.5,3.8l-1.5,3.7l-1.3,3.5l-1.2,3.5l-1.1,3.4l-0.9,3.3l-0.8,3.3l-0.5,2.2l-0.5,2.3l-0.5,2.2
	l-0.4,2.3l-0.4,2.2l-0.3,2.2l-0.3,2.2l-0.2,2.3h-30.2l25.8-121.6l-87-0.1l-77.8,121.7H544V8h205.7L749.6,184L749.6,184z
	 M868.2,352.2l-4.3,0.7l-4.4,0.6l-4.4,0.6l-4.3,0.5l-4.3,0.4l-4.3,0.3l-4.2,0.2h-4.2h-2.7l-2.7-0.1l-2.6-0.2l-2.6-0.3l-2.5-0.4
	l-2.4-0.4l-2.4-0.5l-2.3-0.6l-2.2-0.7l-2.2-0.7l-2.1-0.9l-2-0.9l-2-1.1l-1.9-1.1l-1.8-1.3l-1.7-1.3l-1.7-1.5l-1.5-1.6l-1.5-1.6
	l-1.4-1.8l-1.3-1.8l-1.2-2l-1.1-2l-1.1-2.1l-0.8-2.2l-0.7-2.4l-0.6-2.4l-0.6-2.5l-0.4-2.6l-0.3-2.7l-0.2-2.8l-0.1-2.9h95.8
	L868.2,352.2L868.2,352.2z M989.7,302.5h-51.8l8.5-34H842.6l-8.5,34h-50.2v-7l0.6-2.9l0.5-2.9l0.6-3.1l0.6-3.1l0.9-3.4l0.9-3.4
	l1.1-3.4l1.2-3.3l1.3-3.3l1.4-3.3l1.5-3.2l1.5-3.2l1.7-3.2l1.7-3l1.8-3.1l2-2.9l2-2.9l2-2.8l2.2-2.7l2.3-2.6l2.4-2.5l2.4-2.3
	l2.6-2.3l2.6-2.2l2.7-2l2.9-1.9l2.9-1.7l3.1-1.6l3.2-1.5l3.3-1.3l3.4-1l3.5-0.8l3.6-0.7l3.7-0.5l3.8-0.3l3.9-0.1l3.1,0.1l3.1,0.2
	l3.1,0.4l2.9,0.6l1.5,0.4l1.4,0.4l1.4,0.4l1.3,0.6l1.3,0.5l1.3,0.7l1.2,0.7l1.2,0.7l1.1,0.9l1.1,0.9l0.9,0.9l0.9,1.1l0.8,1l0.7,1.3
	l0.6,1.4l0.6,1.4l0.5,1.5l0.4,1.6l0.3,1.6l0.3,1.8l0.1,1.8v1.9v2l-0.2,2.1h61.9l0.9-4.3l0.8-4.9l0.4-2.6l0.2-2.8l0.2-2.8v-2.9
	l-0.1-3l-0.3-3.1l-0.3-1.5l-0.2-1.6l-0.4-1.6l-0.4-1.6l-0.5-1.7l-0.5-1.6l-0.6-1.6l-0.7-1.6l-0.7-1.6l-0.9-1.6l-0.9-1.6l-1.1-1.6
	l-1.3-1.7l-1.4-1.6l-1.4-1.6l-1.5-1.5l-1.6-1.5l-1.7-1.4l-1.7-1.3l-1.8-1.3l-1.9-1.3l-1.9-1l-2-1l-2.1-1l-2.1-0.9l-2.2-0.9l-2.3-0.8
	l-2.3-0.8l-2.3-0.7l-2.5-0.6l-2.4-0.6l-2.6-0.6l-2.6-0.5l-2.6-0.5l-2.7-0.4l-2.8-0.3l-5.8-0.6l-5.9-0.5l-6.2-0.2l-6.3-0.1l-4.7,0.1
	l-4.9,0.1l-5.2,0.3l-5.4,0.4l-5.6,0.6l-5.7,0.7l-5.8,0.9l-5.9,1.3l-2.9,0.6l-3.1,0.7l-2.9,0.8l-3.1,0.8l-3.1,0.9l-3.1,1l-3.1,1
	l-2.9,1.1l-3.1,1.3l-3.1,1.4l-2.9,1.4l-3.1,1.5l-2.9,1.6l-2.9,1.7l-2.9,1.7l-2.9,1.9V8h205.9L989.7,302.5L989.7,302.5z"/>
</svg>
