<?xml version="1.0" encoding="utf-8"?>
<!-- Generator: Adobe Illustrator 28.1.0, SVG Export Plug-In . SVG Version: 6.00 Build 0)  -->
<svg version="1.1" id="Ebene_2_00000049189225257221545330000016817932361340935337_"
	 xmlns="http://www.w3.org/2000/svg" xmlns:xlink="http://www.w3.org/1999/xlink" x="0px" y="0px" viewBox="0 0 539.8 146.2"
	 style="enable-background:new 0 0 539.8 146.2;" xml:space="preserve">
<style type="text/css">
	.st0{fill:#1EA637;}
	.st1{fill:#EAD433;}
	.st2{fill:#FFFFFF;}
	.st3{fill:#595959;}
	.st4{fill:#D8BA1A;}
</style>
<g id="Ebene_1-2">
	<g>
		<g>
			<path class="st0" d="M48.6,19.4c-1.3-0.9-4.8-3.8-5.9-9.2C42,6.1,42.9,0.4,45.1,0c2.2-0.5,5.7,4.2,6.6,8.6
				C52.6,14.3,49.2,18.7,48.6,19.4z"/>
			<path class="st0" d="M51.7,22.7c1.8,1.1,7.3,4,14.3,2.8c5.7-1.1,12.1-5.1,11.7-8.1s-7.9-5.1-13.9-3.7
				C56.1,15.1,52.4,21.5,51.7,22.7L51.7,22.7z"/>
			<path class="st1" d="M45,66.1c8-11,9-24.5,3.1-33.3c1.7-2.7,0.9-6.4-1.8-8.4s-6.4-1.5-8.6,0.9c-10.1-2.9-22.7,2-30.8,13
				c-8,11-9,24.5-3.1,33.3C2.1,74.4,2.9,78,5.6,80s6.4,1.5,8.6-0.9C24.3,82,36.9,77.1,45,66.1z"/>
		</g>
		<g>
			<path class="st2" d="M97.3,31.4V4.7h5.7v21.5h12.1v5.1L97.3,31.4L97.3,31.4z"/>
			<path class="st2" d="M127.4,31.8c-2.1,0-3.8-0.4-5.4-1.3s-2.9-2.4-4.2-4.6l4.2-2.7c0.6,0.9,1.2,1.6,1.8,2.2s1.2,1,1.9,1.2
				c0.7,0.2,1.3,0.4,2.1,0.4c0.8,0,1.5-0.2,2.1-0.5c0.7-0.4,1.2-0.9,1.6-1.5c0.4-0.6,0.6-1.4,0.6-2.2s-0.2-1.6-0.5-2.2
				s-0.8-1-1.4-1.3s-1.4-0.5-2.2-0.5c-0.4,0-0.8,0-1.3,0.1c-0.5,0.1-0.9,0.2-1.4,0.4c-0.5,0.2-1,0.4-1.6,0.6l-1.3-3.5l7-7.7l1.4,1
				l-11.2-0.1V4.6h16l1,2.1l-8.8,9.5l-1.3-1.6c0.2-0.1,0.5-0.2,1-0.3s0.9-0.1,1.3-0.1c1.2,0,2.3,0.2,3.3,0.6c1,0.4,1.9,1,2.7,1.8
				c0.8,0.8,1.4,1.6,1.9,2.7c0.4,1,0.7,2.1,0.7,3.3c0,1.8-0.4,3.3-1.3,4.7c-0.9,1.4-2.1,2.5-3.5,3.3S129.3,31.8,127.4,31.8
				L127.4,31.8z"/>
			<path class="st2" d="M141.3,31.4V11.2h5.2l0.1,3.9l-0.8,0.1c0.3-0.7,0.6-1.3,1.1-1.8c0.5-0.5,1-1,1.6-1.4s1.3-0.7,2-0.9
				s1.4-0.3,2.1-0.3c1,0,2,0.2,2.8,0.5c0.8,0.3,1.6,0.8,2.1,1.5s1,1.6,1.4,2.8l-0.8-0.1l0.3-0.6c0.3-0.6,0.8-1.2,1.3-1.7
				s1.1-0.9,1.7-1.3s1.3-0.6,2-0.9c0.7-0.2,1.4-0.3,2-0.3c1.6,0,2.9,0.3,3.9,0.9s1.8,1.6,2.3,2.8c0.5,1.2,0.8,2.8,0.8,4.6v12.2H167
				V19.5c0-0.9-0.1-1.7-0.4-2.2c-0.2-0.6-0.6-1-1.1-1.3c-0.5-0.3-1.1-0.4-1.9-0.4c-0.6,0-1.1,0.1-1.6,0.3c-0.5,0.2-0.9,0.5-1.3,0.8
				c-0.4,0.3-0.6,0.7-0.9,1.2c-0.2,0.5-0.3,1-0.3,1.5v12h-5.4V19.5c0-0.8-0.1-1.6-0.4-2.1c-0.3-0.6-0.6-1-1.1-1.4
				c-0.5-0.3-1.1-0.5-1.8-0.5c-0.6,0-1.1,0.1-1.6,0.3c-0.5,0.2-0.9,0.5-1.3,0.8s-0.6,0.7-0.9,1.2s-0.3,1-0.3,1.5v12.1L141.3,31.4
				L141.3,31.4z"/>
			<path class="st2" d="M186.9,31.8c-2.1,0-3.9-0.5-5.5-1.4s-2.9-2.1-3.8-3.7c-0.9-1.6-1.4-3.4-1.4-5.4s0.5-3.8,1.4-5.4
				s2.2-2.8,3.8-3.7s3.4-1.4,5.5-1.4s3.9,0.5,5.5,1.4c1.6,0.9,2.9,2.2,3.8,3.7c0.9,1.6,1.4,3.4,1.4,5.4s-0.5,3.8-1.4,5.4
				c-0.9,1.6-2.2,2.8-3.8,3.7S188.9,31.8,186.9,31.8z M186.9,27.1c1,0,1.9-0.2,2.7-0.7c0.8-0.5,1.4-1.2,1.9-2.1
				c0.4-0.9,0.7-1.9,0.7-3s-0.2-2.1-0.7-3c-0.4-0.9-1.1-1.6-1.9-2.1c-0.8-0.5-1.7-0.7-2.7-0.7s-1.9,0.2-2.7,0.8
				c-0.8,0.5-1.4,1.2-1.9,2.1c-0.5,0.9-0.7,1.9-0.6,3c0,1.1,0.2,2.1,0.6,3c0.5,0.9,1.1,1.6,1.9,2.1S185.9,27.1,186.9,27.1z"/>
			<path class="st2" d="M201.6,31.4V11.2h5.2l0.1,4.1l-1.1,0.5c0.3-0.9,0.8-1.8,1.5-2.5s1.6-1.4,2.6-1.8c1-0.5,2.1-0.7,3.2-0.7
				c1.5,0,2.8,0.3,3.8,0.9c1,0.6,1.8,1.5,2.3,2.8s0.8,2.8,0.8,4.6v12.3h-5.4V19.5c0-0.9-0.1-1.7-0.4-2.3s-0.6-1.1-1.2-1.4
				c-0.5-0.3-1.2-0.4-1.9-0.4c-0.6,0-1.2,0.1-1.7,0.3s-1,0.5-1.3,0.8c-0.4,0.4-0.7,0.8-0.9,1.2s-0.3,1-0.3,1.5v12.1H201.6
				L201.6,31.4z"/>
			<path class="st2" d="M223.5,16.1v-4.8h13.3v4.8H223.5z M227.3,31.4V6.1h5.4v25.3L227.3,31.4L227.3,31.4z"/>
			<path class="st2" d="M240.3,31.4V11.2h5.2l0.2,6.5l-0.9-1.3c0.3-1,0.8-2,1.5-2.8s1.5-1.5,2.4-2s1.9-0.7,2.9-0.7
				c0.4,0,0.9,0,1.3,0.1c0.4,0.1,0.8,0.2,1,0.3l-1.4,5.9c-0.3-0.1-0.7-0.3-1.1-0.4s-0.9-0.2-1.3-0.2c-0.6,0-1.2,0.1-1.7,0.3
				s-1,0.5-1.4,0.9s-0.7,0.9-0.9,1.4c-0.2,0.5-0.3,1.1-0.3,1.8v10.4L240.3,31.4L240.3,31.4z"/>
			<path class="st2" d="M265.7,31.8c-2.2,0-4.1-0.4-5.7-1.3c-1.6-0.9-2.9-2.1-3.8-3.7c-0.9-1.5-1.4-3.3-1.4-5.3c0-1.5,0.2-3,0.8-4.3
				c0.5-1.3,1.2-2.4,2.1-3.4s2-1.7,3.3-2.2s2.6-0.8,4.1-0.8c1.4,0,2.6,0.2,3.8,0.7c1.2,0.5,2.2,1.2,3,2.1c0.9,0.9,1.5,2,2,3.2
				c0.5,1.2,0.7,2.5,0.6,4l0,1.7h-16.2l-0.9-3.3H270l-0.6,0.7v-0.8c0-0.7-0.3-1.3-0.7-1.9c-0.4-0.6-0.9-1-1.5-1.3
				c-0.6-0.3-1.3-0.5-2.1-0.5c-1.1,0-2.1,0.2-2.8,0.7s-1.4,1.1-1.8,1.9s-0.6,1.9-0.6,3s0.3,2.3,0.8,3.2s1.3,1.6,2.2,2.1
				c1,0.5,2.1,0.7,3.4,0.7c0.9,0,1.7-0.1,2.4-0.4s1.5-0.8,2.4-1.5l2.6,3.6c-0.7,0.7-1.5,1.2-2.4,1.7s-1.8,0.8-2.7,1
				S266.6,31.8,265.7,31.8L265.7,31.8z"/>
			<path class="st2" d="M288.1,31.8c-2.2,0-4.1-0.4-5.7-1.3c-1.6-0.9-2.9-2.1-3.8-3.7s-1.4-3.3-1.4-5.3c0-1.5,0.2-3,0.8-4.3
				s1.2-2.4,2.1-3.4c0.9-0.9,2-1.7,3.3-2.2s2.6-0.8,4.1-0.8c1.4,0,2.6,0.2,3.8,0.7c1.2,0.5,2.2,1.2,3,2.1c0.9,0.9,1.5,2,2,3.2
				c0.5,1.2,0.7,2.5,0.6,4l0,1.7h-16.2l-0.9-3.3h12.6l-0.6,0.7v-0.8c0-0.7-0.3-1.3-0.7-1.9c-0.4-0.6-0.9-1-1.5-1.3
				c-0.6-0.3-1.3-0.5-2.1-0.5c-1.1,0-2.1,0.2-2.8,0.7s-1.4,1.1-1.8,1.9s-0.6,1.9-0.6,3s0.3,2.3,0.8,3.2s1.3,1.6,2.2,2.1
				c1,0.5,2.1,0.7,3.4,0.7c0.9,0,1.7-0.1,2.4-0.4s1.5-0.8,2.4-1.5l2.6,3.6c-0.7,0.7-1.5,1.2-2.4,1.7s-1.8,0.8-2.7,1
				S289,31.8,288.1,31.8z"/>
			<path class="st3" d="M312.9,38.6V4.7h10.3v3.8H317l0.2-0.3v27l-0.4-0.5h6.3v3.8C323.2,38.6,312.9,38.6,312.9,38.6z"/>
			<path class="st3" d="M329,31.4V4.7h5v22.1h12.3v4.6L329,31.4L329,31.4z"/>
			<path class="st3" d="M359.7,31.8c-2.1,0-4-0.4-5.6-1.3s-2.9-2.1-3.8-3.6s-1.4-3.3-1.4-5.3c0-1.6,0.2-3,0.8-4.3
				c0.5-1.3,1.2-2.4,2.1-3.4c0.9-0.9,2-1.7,3.2-2.2s2.6-0.8,4.1-0.8c1.3,0,2.5,0.2,3.7,0.8c1.1,0.5,2.1,1.2,3,2.1s1.5,1.9,1.9,3.1
				c0.5,1.2,0.6,2.5,0.6,3.9l0,1.6h-16.3l-0.9-3.2h13.2l-0.6,0.6V19c-0.1-0.8-0.3-1.5-0.8-2.1s-1-1.1-1.7-1.4
				c-0.7-0.3-1.4-0.5-2.2-0.5c-1.2,0-2.3,0.2-3.1,0.7c-0.9,0.5-1.5,1.2-1.9,2.1c-0.4,0.9-0.6,2-0.6,3.4s0.3,2.4,0.8,3.4
				c0.5,1,1.3,1.7,2.3,2.2s2.2,0.8,3.5,0.8c0.9,0,1.8-0.1,2.6-0.5c0.8-0.3,1.6-0.9,2.5-1.6l2.3,3.2c-0.7,0.6-1.5,1.2-2.3,1.6
				c-0.9,0.4-1.8,0.8-2.8,1S360.7,31.8,359.7,31.8L359.7,31.8z"/>
			<path class="st3" d="M372.6,31.4V11.3h4.6l0.1,4l-0.8,0.3c0.2-0.7,0.6-1.3,1-1.9c0.5-0.6,1-1.1,1.6-1.5s1.3-0.8,2-1
				s1.4-0.4,2.2-0.4c1.1,0,2.1,0.2,2.9,0.5s1.6,0.9,2.1,1.6s1,1.7,1.3,2.8l-0.7-0.1l0.3-0.6c0.3-0.6,0.7-1.2,1.2-1.7
				c0.5-0.5,1.1-0.9,1.7-1.3s1.3-0.7,2-0.9c0.7-0.2,1.4-0.3,2.1-0.3c1.5,0,2.8,0.3,3.8,0.9c1,0.6,1.8,1.5,2.3,2.8s0.8,2.8,0.8,4.6
				v12.1h-4.7V19.6c0-1-0.1-1.9-0.4-2.5s-0.7-1.2-1.2-1.5c-0.5-0.3-1.2-0.5-2-0.5c-0.6,0-1.2,0.1-1.8,0.3c-0.6,0.2-1.1,0.5-1.5,0.9
				c-0.4,0.4-0.7,0.8-1,1.4s-0.3,1.1-0.3,1.7v12h-4.7V19.5c0-1-0.1-1.8-0.4-2.4s-0.7-1.1-1.2-1.5c-0.5-0.3-1.2-0.5-1.9-0.5
				c-0.6,0-1.2,0.1-1.8,0.3c-0.6,0.2-1,0.5-1.5,0.9c-0.4,0.4-0.7,0.8-1,1.3s-0.3,1.1-0.3,1.7v12H372.6L372.6,31.4z"/>
			<path class="st3" d="M417.5,31.8c-2,0-3.8-0.5-5.4-1.4c-1.6-0.9-2.8-2.1-3.7-3.7c-0.9-1.6-1.4-3.4-1.4-5.4s0.5-3.8,1.4-5.4
				c0.9-1.6,2.2-2.8,3.7-3.7c1.6-0.9,3.4-1.4,5.4-1.4s3.8,0.4,5.3,1.4c1.6,0.9,2.8,2.1,3.7,3.7c0.9,1.6,1.4,3.4,1.4,5.4
				s-0.5,3.8-1.4,5.4c-0.9,1.6-2.1,2.8-3.7,3.7C421.3,31.3,419.5,31.8,417.5,31.8z M417.5,27.6c1.1,0,2.1-0.3,2.9-0.8
				c0.9-0.6,1.5-1.3,2-2.2s0.7-2,0.7-3.2c0-1.2-0.2-2.3-0.7-3.2c-0.5-0.9-1.2-1.7-2-2.2c-0.8-0.5-1.8-0.8-2.9-0.8s-2.1,0.3-3,0.8
				c-0.9,0.6-1.6,1.3-2,2.3c-0.5,1-0.7,2-0.7,3.2s0.2,2.3,0.7,3.2s1.2,1.7,2,2.2S416.4,27.6,417.5,27.6z"/>
			<path class="st3" d="M432.1,31.4V11.3h4.6l0.1,4.1l-0.9,0.5c0.2-0.9,0.8-1.8,1.5-2.5s1.6-1.4,2.6-1.8c1-0.5,2.1-0.7,3.1-0.7
				c1.5,0,2.8,0.3,3.8,0.9c1,0.6,1.8,1.5,2.3,2.7c0.5,1.2,0.8,2.7,0.8,4.6v12.3h-4.7V19.5c0-1-0.1-1.9-0.4-2.5s-0.7-1.2-1.3-1.5
				c-0.6-0.3-1.3-0.5-2.1-0.4c-0.7,0-1.3,0.1-1.9,0.3c-0.6,0.2-1.1,0.5-1.5,0.9c-0.4,0.4-0.8,0.8-1,1.4s-0.4,1.1-0.4,1.7v12.1H432.1
				L432.1,31.4z"/>
			<path class="st3" d="M453.5,15.7v-4.3h13v4.3H453.5z M457.5,31.4V6.2h4.7v25.2H457.5z"/>
			<path class="st3" d="M470.1,31.4V11.3h4.6l0.1,6.4l-0.6-1.5c0.3-1,0.8-1.9,1.5-2.7c0.7-0.8,1.5-1.4,2.4-1.9s1.9-0.7,2.8-0.7
				c0.4,0,0.8,0,1.2,0.1c0.4,0.1,0.7,0.2,1,0.3l-1.3,5.1c-0.3-0.1-0.6-0.3-1-0.4c-0.4-0.1-0.8-0.2-1.2-0.2c-0.6,0-1.2,0.1-1.8,0.4
				s-1.1,0.6-1.5,1s-0.8,0.9-1,1.5s-0.4,1.2-0.4,1.9v10.7L470.1,31.4L470.1,31.4z"/>
			<path class="st3" d="M494.7,31.8c-2.1,0-4-0.4-5.6-1.3s-2.9-2.1-3.8-3.6s-1.4-3.3-1.4-5.3c0-1.6,0.2-3,0.8-4.3
				c0.5-1.3,1.2-2.4,2.1-3.4s2-1.7,3.2-2.2s2.6-0.8,4.1-0.8c1.3,0,2.5,0.2,3.7,0.8s2.1,1.2,3,2.1s1.5,1.9,1.9,3.1
				c0.4,1.2,0.6,2.5,0.6,3.9l0,1.6h-16.3l-0.9-3.2h13.2l-0.6,0.6V19c-0.1-0.8-0.3-1.5-0.8-2.1c-0.4-0.6-1-1.1-1.7-1.4
				s-1.4-0.5-2.2-0.5c-1.2,0-2.3,0.2-3.1,0.7c-0.9,0.5-1.5,1.2-1.9,2.1c-0.4,0.9-0.6,2-0.6,3.4s0.3,2.4,0.8,3.4
				c0.5,1,1.3,1.7,2.3,2.2s2.2,0.8,3.5,0.8c0.9,0,1.8-0.1,2.6-0.5c0.8-0.3,1.6-0.9,2.5-1.6l2.3,3.2c-0.7,0.6-1.5,1.2-2.3,1.6
				c-0.9,0.4-1.8,0.8-2.8,1S495.7,31.8,494.7,31.8L494.7,31.8z"/>
			<path class="st3" d="M517,31.8c-2.1,0-4-0.4-5.6-1.3c-1.6-0.9-2.9-2.1-3.8-3.6s-1.4-3.3-1.4-5.3c0-1.6,0.2-3,0.8-4.3
				c0.5-1.3,1.2-2.4,2.1-3.4s2-1.7,3.2-2.2s2.6-0.8,4.1-0.8c1.3,0,2.5,0.2,3.7,0.8c1.1,0.5,2.1,1.2,3,2.1c0.8,0.9,1.5,1.9,1.9,3.1
				c0.4,1.2,0.7,2.5,0.6,3.9l0,1.6h-16.3l-0.9-3.2h13.2l-0.6,0.6V19c-0.1-0.8-0.3-1.5-0.8-2.1s-1-1.1-1.7-1.4
				c-0.7-0.3-1.4-0.5-2.2-0.5c-1.2,0-2.3,0.2-3.1,0.7c-0.8,0.5-1.5,1.2-1.9,2.1c-0.4,0.9-0.6,2-0.6,3.4s0.3,2.4,0.8,3.4
				c0.5,1,1.3,1.7,2.3,2.2s2.2,0.8,3.5,0.8c0.9,0,1.8-0.1,2.6-0.5c0.8-0.3,1.6-0.9,2.5-1.6l2.3,3.2c-0.7,0.6-1.5,1.2-2.3,1.6
				s-1.8,0.8-2.8,1C518.9,31.6,518,31.8,517,31.8L517,31.8z"/>
			<path class="st3" d="M529.4,38.6v-3.8h6.2l-0.2,0.3v-27l0.4,0.5h-6.3V4.7h10.3v33.9L529.4,38.6L529.4,38.6z"/>
			<path class="st2" d="M108.7,79.8c-1.9,0-3.7-0.3-5.3-1s-3-1.6-4.2-2.8c-1.2-1.2-2.1-2.7-2.7-4.4c-0.7-1.7-1-3.5-1-5.5
				s0.3-3.7,1-5.4c0.7-1.7,1.6-3.1,2.9-4.3s2.6-2.2,4.3-2.9s3.4-1,5.3-1c1.3,0,2.6,0.2,3.8,0.6s2.3,0.9,3.3,1.6
				c1,0.7,1.9,1.5,2.6,2.3l-3.2,3.5c-0.7-0.7-1.3-1.3-2-1.7c-0.7-0.5-1.4-0.8-2.2-1.1c-0.8-0.2-1.5-0.4-2.3-0.4
				c-1.2,0-2.3,0.2-3.3,0.7s-1.9,1-2.7,1.8s-1.3,1.7-1.8,2.8c-0.4,1.1-0.7,2.3-0.7,3.6s0.2,2.6,0.6,3.7c0.4,1.1,1,2,1.8,2.8
				c0.8,0.8,1.7,1.4,2.8,1.8s2.3,0.6,3.6,0.6c0.8,0,1.7-0.1,2.4-0.3c0.8-0.2,1.5-0.6,2.2-1c0.7-0.4,1.3-0.9,1.8-1.5l2.4,3.9
				c-0.6,0.7-1.4,1.3-2.4,1.9c-1,0.6-2.2,1-3.4,1.3C111.2,79.6,110,79.8,108.7,79.8L108.7,79.8z"/>
			<path class="st2" d="M125.7,88.2l4.3-9.9l0,3.1l-9.9-22.1h5.4l5.5,13.1c0.2,0.3,0.4,0.8,0.5,1.3c0.2,0.6,0.3,1.1,0.5,1.6
				l-0.9,0.3c0.2-0.5,0.4-1,0.6-1.5c0.2-0.6,0.4-1.1,0.6-1.7l4.7-13.1h5.4L134,79.4l-3.4,8.8L125.7,88.2L125.7,88.2z"/>
			<path class="st2" d="M156.4,79.8c-0.9,0-1.8-0.1-2.6-0.4c-0.9-0.3-1.6-0.6-2.3-1.1c-0.7-0.5-1.3-1-1.7-1.5
				c-0.5-0.6-0.8-1.2-0.9-1.7l1.1-0.5l-0.1,4.8h-4.5V51.2h4.7V64l-0.8-0.4c0.1-0.6,0.4-1.2,0.9-1.7c0.4-0.5,1-1,1.7-1.5
				c0.7-0.4,1.4-0.8,2.2-1.1s1.6-0.4,2.4-0.4c1.8,0,3.4,0.5,4.8,1.3c1.4,0.9,2.5,2.1,3.3,3.7s1.2,3.4,1.2,5.4s-0.4,3.8-1.2,5.4
				c-0.8,1.6-1.9,2.8-3.3,3.7C159.7,79.3,158.1,79.8,156.4,79.8L156.4,79.8z M155.4,75.7c1.1,0,2-0.3,2.9-0.8s1.5-1.3,2-2.2
				s0.7-2.1,0.7-3.3s-0.2-2.3-0.7-3.2c-0.5-0.9-1.1-1.7-2-2.2c-0.8-0.5-1.8-0.8-2.9-0.8s-2.1,0.3-2.9,0.8c-0.8,0.5-1.5,1.3-2,2.2
				s-0.7,2-0.7,3.2s0.2,2.3,0.7,3.3s1.1,1.7,2,2.2S154.3,75.7,155.4,75.7L155.4,75.7z"/>
			<path class="st2" d="M179.1,79.8c-2.1,0-4-0.4-5.6-1.3s-2.9-2.1-3.8-3.6s-1.4-3.3-1.4-5.3c0-1.6,0.2-3,0.8-4.3
				c0.5-1.3,1.2-2.4,2.1-3.4c0.9-1,2-1.7,3.2-2.2s2.6-0.8,4.1-0.8c1.3,0,2.6,0.2,3.7,0.8c1.1,0.5,2.1,1.2,3,2.1s1.5,1.9,1.9,3.1
				c0.4,1.2,0.6,2.5,0.6,3.9l0,1.6h-16.3l-0.9-3.2h13.2l-0.6,0.7V67c-0.1-0.8-0.3-1.5-0.8-2.1s-1-1.1-1.7-1.4
				c-0.7-0.3-1.4-0.5-2.2-0.5c-1.2,0-2.3,0.2-3.1,0.7c-0.9,0.5-1.5,1.2-1.9,2.1c-0.4,0.9-0.6,2-0.6,3.4s0.3,2.4,0.8,3.4
				c0.5,1,1.3,1.7,2.3,2.2c1,0.5,2.2,0.8,3.5,0.8c0.9,0,1.8-0.2,2.6-0.5c0.8-0.3,1.6-0.8,2.6-1.6l2.3,3.2c-0.7,0.6-1.5,1.2-2.3,1.6
				c-0.9,0.4-1.8,0.8-2.8,1.1S180,79.8,179.1,79.8L179.1,79.8z"/>
			<path class="st2" d="M192,79.4V59.3h4.6l0.1,6.4l-0.6-1.4c0.3-1,0.8-1.9,1.4-2.7s1.5-1.5,2.4-1.9c0.9-0.5,1.9-0.7,2.8-0.7
				c0.4,0,0.8,0,1.2,0.1c0.4,0.1,0.7,0.2,1,0.3l-1.3,5.1c-0.3-0.2-0.6-0.3-1-0.4s-0.8-0.2-1.2-0.2c-0.6,0-1.2,0.1-1.8,0.4
				c-0.6,0.2-1.1,0.6-1.5,1s-0.8,0.9-1,1.5c-0.2,0.6-0.4,1.2-0.4,1.9v10.7L192,79.4L192,79.4z"/>
			<path class="st2" d="M214.8,79.8c-1.8,0-3.4-0.3-4.8-0.9s-2.6-1.4-3.4-2.6l3.1-2.6c0.8,0.9,1.6,1.5,2.6,1.9
				c0.9,0.4,1.9,0.6,3,0.6c0.4,0,0.8-0.1,1.2-0.2s0.6-0.2,0.9-0.5s0.4-0.4,0.6-0.7s0.2-0.6,0.2-0.9c0-0.6-0.2-1.1-0.7-1.4
				c-0.2-0.2-0.6-0.4-1.2-0.6s-1.2-0.4-2.1-0.6c-1.4-0.4-2.5-0.8-3.4-1.2s-1.6-1-2.1-1.6c-0.4-0.5-0.8-1-1-1.6
				c-0.2-0.6-0.3-1.3-0.3-2c0-0.9,0.2-1.7,0.6-2.4s0.9-1.3,1.6-1.9c0.7-0.5,1.5-0.9,2.4-1.2c0.9-0.3,1.9-0.4,2.9-0.4s2,0.1,2.9,0.4
				s1.8,0.6,2.7,1.1c0.8,0.5,1.5,1,2.1,1.7l-2.6,2.9c-0.5-0.5-1-0.9-1.6-1.2s-1.1-0.6-1.7-0.9c-0.6-0.2-1.1-0.3-1.6-0.3
				s-0.9,0-1.3,0.1c-0.4,0.1-0.7,0.2-0.9,0.4s-0.4,0.4-0.6,0.7c-0.1,0.3-0.2,0.6-0.2,0.9c0,0.3,0.1,0.6,0.2,0.9
				c0.1,0.3,0.3,0.5,0.6,0.7c0.3,0.2,0.7,0.4,1.3,0.6s1.3,0.4,2.2,0.7c1.2,0.3,2.3,0.7,3.1,1.1s1.5,0.9,2,1.4c0.5,0.5,0.8,1,1,1.6
				s0.3,1.3,0.3,2c0,1.2-0.3,2.3-1,3.2c-0.7,0.9-1.6,1.7-2.7,2.2C217.5,79.5,216.2,79.8,214.8,79.8L214.8,79.8z"/>
			<path class="st2" d="M235.9,79.8c-2.1,0-4-0.4-5.6-1.3s-2.9-2.1-3.8-3.6c-0.9-1.5-1.4-3.3-1.4-5.3c0-1.6,0.2-3,0.8-4.3
				c0.5-1.3,1.2-2.4,2.1-3.4s2-1.7,3.2-2.2c1.3-0.5,2.6-0.8,4.1-0.8c1.3,0,2.6,0.2,3.7,0.8s2.1,1.2,3,2.1s1.5,1.9,1.9,3.1
				c0.4,1.2,0.6,2.5,0.6,3.9l0,1.6h-16.3l-0.9-3.2h13.2l-0.6,0.7V67c-0.1-0.8-0.3-1.5-0.8-2.1s-1-1.1-1.7-1.4s-1.4-0.5-2.2-0.5
				c-1.2,0-2.3,0.2-3.1,0.7c-0.9,0.5-1.5,1.2-1.9,2.1c-0.4,0.9-0.6,2-0.6,3.4s0.3,2.4,0.8,3.4c0.6,1,1.3,1.7,2.3,2.2
				c1,0.5,2.2,0.8,3.5,0.8c0.9,0,1.8-0.2,2.6-0.5c0.8-0.3,1.6-0.8,2.6-1.6l2.3,3.2c-0.7,0.6-1.5,1.2-2.3,1.6
				c-0.9,0.4-1.8,0.8-2.8,1.1C237.8,79.6,236.9,79.8,235.9,79.8L235.9,79.8z"/>
			<path class="st2" d="M257.5,79.8c-1.9,0-3.6-0.5-5.1-1.4c-1.5-0.9-2.7-2.2-3.5-3.7s-1.3-3.3-1.3-5.3s0.4-3.8,1.3-5.3
				c0.9-1.6,2-2.8,3.5-3.7c1.5-0.9,3.2-1.4,5.1-1.4c1.9,0,3.4,0.3,4.9,1c1.5,0.7,2.6,1.6,3.4,2.9l-2.6,3.1c-0.4-0.5-0.9-1-1.5-1.4
				c-0.6-0.4-1.2-0.8-1.9-1c-0.7-0.2-1.3-0.4-2-0.4c-1.1,0-2.1,0.3-3,0.8s-1.6,1.3-2.1,2.2c-0.5,0.9-0.8,2-0.8,3.2s0.3,2.3,0.8,3.2
				c0.5,0.9,1.2,1.7,2.1,2.2s1.9,0.8,3,0.8c0.7,0,1.3-0.1,1.9-0.3c0.6-0.2,1.2-0.5,1.8-0.9s1.1-0.9,1.6-1.5l2.6,3.2
				c-0.9,1.1-2,2-3.6,2.7S259.1,79.8,257.5,79.8L257.5,79.8z"/>
			<path class="st2" d="M276.4,79.8c-1.5,0-2.7-0.3-3.8-1c-1.1-0.7-1.9-1.6-2.4-2.8s-0.8-2.7-0.8-4.3V59.3h4.7v11.4
				c0,1.1,0.2,2,0.5,2.7s0.8,1.3,1.5,1.7c0.6,0.4,1.4,0.6,2.3,0.6c0.7,0,1.3-0.1,1.8-0.3c0.5-0.2,1-0.5,1.4-0.9
				c0.4-0.4,0.7-0.9,1-1.4s0.3-1.1,0.3-1.8v-12h4.7v20.1h-4.6l-0.1-4.2l0.8-0.5c-0.3,1-0.8,1.8-1.5,2.6s-1.6,1.3-2.6,1.8
				C278.6,79.6,277.5,79.8,276.4,79.8L276.4,79.8z"/>
			<path class="st2" d="M292.9,79.4V59.3h4.6l0.1,6.4l-0.6-1.4c0.3-1,0.8-1.9,1.5-2.7s1.5-1.5,2.4-1.9c0.9-0.5,1.9-0.7,2.8-0.7
				c0.4,0,0.8,0,1.2,0.1c0.4,0.1,0.7,0.2,1,0.3l-1.3,5.1c-0.3-0.2-0.6-0.3-1-0.4s-0.8-0.2-1.2-0.2c-0.6,0-1.2,0.1-1.8,0.4
				s-1.1,0.6-1.5,1s-0.8,0.9-1,1.5s-0.4,1.2-0.4,1.9v10.7L292.9,79.4L292.9,79.4z"/>
			<path class="st2" d="M311.8,55c-0.9,0-1.7-0.2-2.2-0.7c-0.5-0.5-0.8-1.1-0.8-2c0-0.8,0.3-1.5,0.8-2s1.3-0.8,2.2-0.8
				c1,0,1.7,0.2,2.2,0.7s0.8,1.2,0.8,2c0,0.8-0.3,1.4-0.8,1.9C313.5,54.8,312.7,55,311.8,55L311.8,55z M309.5,79.4V59.3h4.7v20.1
				H309.5z"/>
			<path class="st2" d="M318.4,63.7v-4.3h13v4.3H318.4z M322.3,79.4V54.2h4.7v25.2H322.3z"/>
			<path class="st2" d="M338,88.2l4.3-9.9l0,3.1l-9.9-22.1h5.4l5.5,13.1c0.2,0.3,0.4,0.8,0.5,1.3c0.2,0.6,0.3,1.1,0.5,1.6l-1,0.3
				c0.2-0.5,0.4-1,0.6-1.5s0.4-1.1,0.6-1.7l4.7-13.1h5.5l-8.4,20.1l-3.4,8.8L338,88.2L338,88.2z"/>
		</g>
	</g>
</g>
<g>
	<path class="st4" d="M97.8,133.9c-2.5-2.3-3.9-5.5-3.9-9.3c0-3.7,1.4-6.9,3.9-9.3c2.5-2.4,5.9-3.7,9.8-3.7c4,0,7.3,1.4,9.8,3.7
		c2.4,2.3,3.9,5.5,3.9,9.3c0,3.8-1.5,7-3.9,9.3c-2.5,2.4-5.9,3.7-9.8,3.7C103.7,137.6,100.3,136.2,97.8,133.9z M115.5,124.6
		c0-4.7-3.3-8-7.9-8c-4.5,0-7.9,3.3-7.9,8c0,4.8,3.3,8.1,7.9,8.1C112.2,132.6,115.5,129.3,115.5,124.6z"/>
	<path class="st4" d="M130.2,144.1h-5.6v-26.3h5.3v2.2c1.4-1.7,3.5-2.5,6.1-2.5c1.8,0,3.4,0.4,4.9,1.2c2.9,1.7,4.7,4.7,4.7,8.8
		c0,2-0.4,3.8-1.3,5.3c-1.7,3-4.7,4.6-8.3,4.6c-1.6,0-3.1-0.3-4.3-1.1c-0.6-0.3-1.1-0.8-1.6-1.3V144.1z M137.6,132.2
		c1.4-0.9,2.4-2.5,2.4-4.7c0-1.1-0.2-2.1-0.6-2.9c-0.9-1.6-2.4-2.5-4.3-2.5c-0.9,0-1.7,0.2-2.5,0.6c-1.5,0.9-2.4,2.4-2.4,4.7
		c0,1.1,0.2,2,0.6,2.8c0.9,1.6,2.4,2.5,4.3,2.5C136,132.8,136.9,132.6,137.6,132.2z"/>
	<path class="st4" d="M153.3,136.2c-3.3-1.7-5.2-4.8-5.2-8.6c0-1.9,0.4-3.7,1.4-5.2c1.8-3,5-4.8,8.9-4.8c1.9,0,3.6,0.4,5.1,1.2
		c3,1.6,4.9,4.7,4.9,8.9c0,0.4-0.1,1-0.1,1.5h-14.6c0.2,0.5,0.3,1,0.6,1.4c1,1.6,2.7,2.5,5,2.5c2.1,0,3.6-0.6,4.9-1.8l3,3.2
		c-1.7,2-4.5,3.1-8,3.1C156.9,137.4,154.9,137,153.3,136.2z M163.1,125.8c-0.4-2.4-2.2-4-4.8-4c-1,0-1.8,0.2-2.5,0.6
		c-1.2,0.7-2,1.9-2.3,3.4H163.1z"/>
	<path class="st4" d="M176.4,137.1h-5.6v-19.3h5.3v2.3c1.5-1.7,3.8-2.6,6.4-2.6c1.5,0,2.9,0.3,4.1,0.9c2.4,1.2,3.9,3.7,3.9,7.7v11
		h-5.6V127c0-3.1-1.4-4.6-3.9-4.6c-0.9,0-1.7,0.2-2.4,0.5c-1.4,0.8-2.3,2.3-2.3,4.7V137.1z"/>
	<path class="st4" d="M207.6,133.9c-2.4-2.3-3.9-5.5-3.9-9.3c0-3.8,1.4-7,3.9-9.3c2.5-2.3,5.8-3.7,9.7-3.7c4.3,0,7.9,1.6,10.3,4.5
		l-3.7,3.4c-1.7-1.9-3.8-2.9-6.3-2.9c-4.7,0-8,3.3-8,8c0,4.8,3.3,8.1,8,8.1c2.5,0,4.6-1,6.3-3l3.7,3.4c-2.4,2.9-5.9,4.5-10.4,4.5
		C213.5,137.6,210.1,136.3,207.6,133.9z"/>
	<path class="st4" d="M235.3,136.2c-3.2-1.7-5.2-4.8-5.2-8.6c0-1.9,0.4-3.7,1.4-5.2c1.8-3,5.1-4.8,9.2-4.8c2.1,0,3.9,0.4,5.5,1.2
		c3.2,1.7,5.1,4.8,5.1,8.7c0,1.9-0.4,3.6-1.4,5.1c-1.8,3-5.2,4.8-9.2,4.8C238.7,137.4,236.8,137,235.3,136.2z M243.2,132.2
		c1.5-0.9,2.4-2.5,2.4-4.7c0-1.1-0.2-2.1-0.6-2.9c-0.9-1.6-2.4-2.5-4.3-2.5c-0.9,0-1.7,0.2-2.5,0.6c-1.5,0.9-2.4,2.4-2.4,4.7
		c0,1.1,0.2,2,0.6,2.8c0.9,1.6,2.4,2.5,4.3,2.5C241.7,132.8,242.5,132.6,243.2,132.2z"/>
	<path class="st4" d="M259.6,137.1H254v-19.3h5.3v2.2c1.4-1.6,3.6-2.5,6.1-2.5c2.7,0,5,1,6.3,3.1c1.6-2,4.1-3.1,7-3.1
		c1.5,0,2.9,0.3,4.1,0.9c2.4,1.2,3.8,3.7,3.8,7.7v11H281V127c0-3.1-1.4-4.6-3.7-4.6c-0.8,0-1.5,0.2-2.2,0.5
		c-1.3,0.8-2.1,2.2-2.1,4.5v9.7h-5.6V127c0-3.1-1.3-4.6-3.7-4.6c-0.8,0-1.5,0.2-2.2,0.5c-1.3,0.8-2.1,2.2-2.1,4.5V137.1z"/>
	<path class="st4" d="M296.3,137.1h-5.6v-19.3h5.3v2.2c1.4-1.6,3.6-2.5,6.1-2.5c2.7,0,5,1,6.3,3.1c1.6-2,4.1-3.1,7-3.1
		c1.5,0,2.9,0.3,4.1,0.9c2.4,1.2,3.8,3.7,3.8,7.7v11h-5.6V127c0-3.1-1.4-4.6-3.7-4.6c-0.8,0-1.5,0.2-2.2,0.5
		c-1.3,0.8-2.1,2.2-2.1,4.5v9.7h-5.6V127c0-3.1-1.3-4.6-3.7-4.6c-0.8,0-1.5,0.2-2.2,0.5c-1.3,0.8-2.1,2.2-2.1,4.5V137.1z"/>
	<path class="st4" d="M331.4,136.5c-2.5-1.3-4-3.8-4-7.8v-10.9h5.6v10.1c0,3.2,1.4,4.7,3.9,4.7c0.9,0,1.6-0.2,2.3-0.6
		c1.3-0.7,2.2-2.3,2.2-4.6v-9.5h5.6v19.3h-5.3v-2.3c-1.4,1.7-3.6,2.5-6,2.5C334.1,137.4,332.7,137.1,331.4,136.5z"/>
	<path class="st4" d="M356.7,137.1h-5.6v-19.3h5.3v2.3c1.5-1.7,3.8-2.6,6.4-2.6c1.5,0,2.9,0.3,4.1,0.9c2.4,1.2,3.9,3.7,3.9,7.7v11
		h-5.6V127c0-3.1-1.4-4.6-3.9-4.6c-0.9,0-1.7,0.2-2.4,0.5c-1.4,0.8-2.3,2.3-2.3,4.7V137.1z"/>
	<path class="st4" d="M375,112c0-1.7,1.4-3.1,3.5-3.1s3.5,1.2,3.5,3c0,1.8-1.4,3.2-3.5,3.2C376.4,115.1,375,113.8,375,112z
		 M381.2,137.1h-5.6v-19.3h5.6V137.1z"/>
	<path class="st4" d="M386.5,130.5v-8.2h-3V118h3v-4.5h5.6v4.5h4.8v4.3H392v8.1c0,1.6,1,2.5,2.4,2.5c0.9,0,1.6-0.2,2.3-0.7l1.5,4
		c-1.2,0.8-2.8,1.2-4.5,1.2C389.1,137.4,386.5,135.1,386.5,130.5z"/>
	<path class="st4" d="M408.1,146.2h-5.3l3.6-8.9l-8.3-19.4h5.8l5.4,13.1l5.5-13.1h5.4L408.1,146.2z"/>
	<path class="st4" d="M451.6,137.1h-20.8V112h20.8v4.6h-15.1v5.5h13.5v4.5h-13.5v5.8h15V137.1z"/>
	<path class="st4" d="M467,137.1h-5.8l-8.1-19.3h5.8l5.3,13.1l5.5-13.1h5.4L467,137.1z"/>
	<path class="st4" d="M480.2,136.2c-3.3-1.7-5.2-4.8-5.2-8.6c0-1.9,0.4-3.7,1.4-5.2c1.8-3,5-4.8,8.9-4.8c1.9,0,3.6,0.4,5.1,1.2
		c3,1.6,4.9,4.7,4.9,8.9c0,0.4-0.1,1-0.1,1.5h-14.6c0.2,0.5,0.3,1,0.6,1.4c1,1.6,2.7,2.5,5,2.5c2.1,0,3.6-0.6,4.9-1.8l3,3.2
		c-1.7,2-4.5,3.1-8,3.1C483.8,137.4,481.8,137,480.2,136.2z M490,125.8c-0.4-2.4-2.2-4-4.8-4c-1,0-1.8,0.2-2.5,0.6
		c-1.2,0.7-2,1.9-2.3,3.4H490z"/>
	<path class="st4" d="M503.3,137.1h-5.6v-19.3h5.3v2.3c1.5-1.7,3.8-2.6,6.4-2.6c1.5,0,2.9,0.3,4.1,0.9c2.4,1.2,3.9,3.7,3.9,7.7v11
		h-5.6V127c0-3.1-1.4-4.6-3.9-4.6c-0.9,0-1.7,0.2-2.4,0.5c-1.4,0.8-2.3,2.3-2.3,4.7V137.1z"/>
	<path class="st4" d="M522,130.5v-8.2h-3V118h3v-4.5h5.6v4.5h4.8v4.3h-4.8v8.1c0,1.6,1,2.5,2.4,2.5c0.9,0,1.6-0.2,2.3-0.7l1.5,4
		c-1.2,0.8-2.8,1.2-4.5,1.2C524.6,137.4,522,135.1,522,130.5z"/>
</g>
</svg>
