<?xml version="1.0" encoding="UTF-8"?>
<svg id="Ebene_2" data-name="Ebene 2" xmlns="http://www.w3.org/2000/svg" viewBox="0 0 539.75 88.15">
  <defs>
    <style>
      .cls-1 {
        fill: #595959;
      }

      .cls-1, .cls-2, .cls-3, .cls-4 {
        stroke-width: 0px;
      }

      .cls-2 {
        fill: #1ea637;
      }

      .cls-3 {
        fill: #fff;
      }

      .cls-4 {
        fill: #ead433;
      }
    </style>
  </defs>
  <g id="Ebene_1-2" data-name="Ebene 1">
    <g>
      <g>
        <path class="cls-2" d="m48.61,19.44c-1.28-.92-4.76-3.84-5.86-9.15-.73-4.21.18-9.88,2.38-10.25,2.2-.55,5.67,4.21,6.59,8.6.92,5.67-2.56,10.07-3.11,10.8Z"/>
        <path class="cls-2" d="m51.72,22.74c1.83,1.1,7.32,4.03,14.27,2.75,5.67-1.1,12.08-5.12,11.71-8.05s-7.87-5.12-13.91-3.66c-7.69,1.28-11.35,7.69-12.08,8.97Z"/>
        <path class="cls-4" d="m44.95,66.11c8.05-10.98,8.97-24.52,3.11-33.31,1.65-2.75.92-6.41-1.83-8.42s-6.41-1.46-8.6.92c-10.07-2.93-22.69,2.01-30.75,12.99C-1.17,49.27-2.09,62.82,3.77,71.6c-1.65,2.75-.92,6.41,1.83,8.42,2.75,2.01,6.41,1.46,8.6-.92,10.07,2.93,22.69-2.01,30.75-12.99Z"/>
      </g>
      <g>
        <path class="cls-3" d="m97.3,31.39V4.71h5.71v21.53h12.08v5.14h-17.79Z"/>
        <path class="cls-3" d="m127.4,31.77c-2.06,0-3.85-.44-5.39-1.33-1.54-.89-2.95-2.41-4.25-4.57l4.19-2.67c.58.89,1.17,1.61,1.77,2.17.6.56,1.23.96,1.89,1.22.66.25,1.35.38,2.06.38.76,0,1.47-.18,2.13-.53.66-.36,1.19-.86,1.58-1.5.39-.65.59-1.39.59-2.23s-.17-1.59-.5-2.17c-.33-.58-.81-1.03-1.45-1.33-.64-.3-1.38-.46-2.25-.46-.38,0-.8.04-1.26.11-.46.08-.93.2-1.41.36-.48.17-1,.36-1.56.59l-1.33-3.51,7.05-7.7,1.45,1.03-11.2-.15v-4.92h16.04l1.03,2.1-8.8,9.52-1.33-1.56c.2-.1.54-.2,1.01-.29.47-.09.91-.13,1.31-.13,1.17,0,2.26.22,3.28.65,1.02.43,1.92,1.03,2.71,1.79.79.76,1.4,1.65,1.85,2.67.44,1.02.67,2.11.67,3.28,0,1.75-.44,3.32-1.31,4.71-.88,1.38-2.06,2.48-3.54,3.28s-3.16,1.2-5.01,1.2Z"/>
        <path class="cls-3" d="m141.34,31.39V11.23h5.22l.11,3.85-.8.15c.28-.66.65-1.26,1.1-1.79.46-.53,1-.99,1.62-1.37.62-.38,1.28-.68,1.96-.9s1.37-.32,2.06-.32c1.04,0,1.98.17,2.82.5.84.33,1.55.84,2.13,1.54.58.7,1.04,1.62,1.37,2.76l-.84-.08.27-.61c.33-.61.75-1.16,1.26-1.66.51-.5,1.08-.93,1.71-1.3.63-.37,1.3-.65,1.98-.86.69-.2,1.36-.3,2.02-.3,1.57,0,2.88.31,3.92.93,1.04.62,1.82,1.56,2.34,2.8.52,1.24.78,2.77.78,4.57v12.23h-5.41v-11.85c0-.92-.13-1.66-.38-2.25-.25-.58-.62-1.02-1.1-1.31s-1.11-.44-1.87-.44c-.58,0-1.12.1-1.62.29-.5.19-.93.46-1.29.8-.37.34-.65.74-.86,1.2-.2.46-.3.97-.3,1.52v12.04h-5.41v-11.89c0-.84-.13-1.56-.4-2.15-.27-.6-.64-1.05-1.12-1.35-.48-.3-1.08-.46-1.79-.46-.58,0-1.12.1-1.62.29s-.92.46-1.28.8-.64.74-.86,1.2-.32.95-.32,1.49v12.08h-5.41Z"/>
        <path class="cls-3" d="m186.91,31.77c-2.06,0-3.89-.45-5.5-1.35-1.61-.9-2.88-2.14-3.81-3.71-.93-1.57-1.39-3.38-1.39-5.41s.46-3.83,1.39-5.39c.93-1.56,2.2-2.8,3.81-3.72,1.61-.92,3.45-1.37,5.5-1.37s3.85.46,5.47,1.37c1.61.91,2.88,2.15,3.79,3.72.91,1.56,1.37,3.36,1.37,5.39s-.46,3.84-1.37,5.41c-.92,1.58-2.18,2.81-3.79,3.71-1.61.9-3.44,1.35-5.47,1.35Zm0-4.72c.99,0,1.88-.25,2.67-.74.79-.5,1.4-1.18,1.85-2.06.44-.88.67-1.86.67-2.95s-.22-2.11-.67-2.99c-.44-.88-1.06-1.56-1.85-2.06s-1.68-.74-2.67-.74-1.92.25-2.71.76c-.79.51-1.41,1.19-1.87,2.06-.46.86-.67,1.85-.65,2.97-.03,1.09.19,2.08.65,2.95.46.88,1.08,1.56,1.87,2.06.79.5,1.69.74,2.71.74Z"/>
        <path class="cls-3" d="m201.62,31.39V11.23h5.18l.15,4.12-1.07.46c.28-.91.78-1.75,1.5-2.5s1.59-1.35,2.61-1.81c1.02-.46,2.08-.69,3.2-.69,1.52,0,2.8.3,3.83.92,1.03.61,1.8,1.53,2.32,2.76.52,1.23.78,2.75.78,4.55v12.34h-5.41v-11.93c0-.91-.13-1.68-.38-2.29-.25-.61-.64-1.06-1.16-1.35-.52-.29-1.16-.41-1.92-.36-.61,0-1.17.1-1.7.29s-.97.46-1.33.82c-.37.36-.66.76-.88,1.22s-.32.95-.32,1.49v12.12h-5.41Z"/>
        <path class="cls-3" d="m223.48,16.07v-4.84h13.3v4.84h-13.3Zm3.77,15.32V6.12h5.41v25.26h-5.41Z"/>
        <path class="cls-3" d="m240.32,31.39V11.23h5.22l.19,6.48-.91-1.33c.3-1.04.8-1.99,1.49-2.84s1.49-1.52,2.42-2,1.9-.72,2.92-.72c.43,0,.85.04,1.26.11.41.08.75.17,1.03.27l-1.45,5.94c-.3-.15-.67-.29-1.11-.4s-.88-.17-1.33-.17c-.61,0-1.17.11-1.7.32s-.97.52-1.35.91c-.38.39-.68.86-.9,1.39-.22.53-.32,1.12-.32,1.75v10.44h-5.45Z"/>
        <path class="cls-3" d="m265.74,31.77c-2.18,0-4.09-.44-5.71-1.33-1.63-.89-2.9-2.11-3.81-3.66-.92-1.55-1.37-3.33-1.37-5.33,0-1.55.25-2.97.76-4.27.51-1.3,1.22-2.42,2.13-3.37.91-.95,2-1.69,3.26-2.21s2.62-.78,4.1-.78c1.37,0,2.64.25,3.81.74,1.17.5,2.18,1.19,3.03,2.1.85.9,1.5,1.96,1.96,3.18.46,1.22.66,2.55.61,4l-.04,1.68h-16.19l-.88-3.32h12.61l-.61.69v-.84c-.05-.69-.27-1.31-.67-1.87-.39-.56-.9-.99-1.51-1.3-.61-.3-1.29-.46-2.06-.46-1.12,0-2.06.22-2.84.65-.78.43-1.37,1.07-1.77,1.91s-.61,1.85-.61,3.05.26,2.27.78,3.16c.52.89,1.26,1.58,2.21,2.08.95.5,2.08.74,3.37.74.89,0,1.7-.14,2.44-.42.74-.28,1.52-.76,2.36-1.45l2.59,3.62c-.74.66-1.55,1.21-2.44,1.66-.89.45-1.8.78-2.74,1.01-.94.23-1.87.34-2.78.34Z"/>
        <path class="cls-3" d="m288.06,31.77c-2.19,0-4.09-.44-5.71-1.33-1.63-.89-2.9-2.11-3.81-3.66-.91-1.55-1.37-3.33-1.37-5.33,0-1.55.25-2.97.76-4.27.51-1.3,1.22-2.42,2.13-3.37.92-.95,2-1.69,3.26-2.21,1.26-.52,2.62-.78,4.1-.78,1.37,0,2.64.25,3.81.74,1.17.5,2.18,1.19,3.03,2.1.85.9,1.5,1.96,1.96,3.18.46,1.22.66,2.55.61,4l-.04,1.68h-16.19l-.88-3.32h12.61l-.61.69v-.84c-.05-.69-.27-1.31-.67-1.87-.39-.56-.89-.99-1.5-1.3-.61-.3-1.3-.46-2.06-.46-1.12,0-2.06.22-2.84.65-.78.43-1.37,1.07-1.77,1.91s-.61,1.85-.61,3.05.26,2.27.78,3.16c.52.89,1.26,1.58,2.21,2.08.95.5,2.08.74,3.37.74.89,0,1.7-.14,2.44-.42.74-.28,1.52-.76,2.36-1.45l2.59,3.62c-.74.66-1.55,1.21-2.44,1.66-.89.45-1.8.78-2.74,1.01-.94.23-1.87.34-2.78.34Z"/>
        <path class="cls-1" d="m312.87,38.62V4.71h10.32v3.81h-6.17l.23-.3v27.05l-.38-.46h6.32v3.81h-10.32Z"/>
        <path class="cls-1" d="m328.98,31.39V4.71h4.95v22.1h12.31v4.57h-17.26Z"/>
        <path class="cls-1" d="m359.73,31.77c-2.11,0-3.97-.44-5.58-1.33-1.61-.89-2.87-2.1-3.77-3.64s-1.35-3.3-1.35-5.28c0-1.57.25-3.01.76-4.3.51-1.3,1.21-2.42,2.12-3.37.9-.95,1.98-1.69,3.24-2.21s2.63-.78,4.13-.78c1.32,0,2.55.25,3.7.76,1.14.51,2.13,1.2,2.97,2.08.84.88,1.48,1.92,1.92,3.12.45,1.21.65,2.52.63,3.94l-.04,1.64h-16.27l-.88-3.2h13.22l-.61.65v-.84c-.08-.79-.33-1.48-.76-2.08s-.98-1.07-1.66-1.41c-.67-.34-1.42-.51-2.23-.51-1.25,0-2.29.24-3.14.72s-1.49,1.17-1.92,2.08c-.43.9-.65,2.03-.65,3.37s.27,2.43.82,3.39c.54.97,1.32,1.71,2.32,2.23,1,.52,2.18.78,3.52.78.94,0,1.8-.15,2.59-.46.79-.3,1.64-.85,2.55-1.64l2.32,3.24c-.69.63-1.47,1.17-2.34,1.62-.88.44-1.8.79-2.76,1.05s-1.92.38-2.86.38Z"/>
        <path class="cls-1" d="m372.57,31.39V11.31h4.61l.08,4.04-.76.3c.23-.66.57-1.28,1.03-1.85.46-.57,1-1.07,1.64-1.49s1.31-.75,2.02-.99,1.44-.36,2.17-.36c1.09,0,2.06.17,2.91.51.85.34,1.56.88,2.13,1.62.57.74,1,1.68,1.28,2.82l-.72-.15.31-.61c.28-.61.67-1.16,1.18-1.66.51-.5,1.08-.94,1.71-1.33.63-.39,1.3-.69,2-.9.7-.2,1.39-.3,2.08-.3,1.52,0,2.79.3,3.81.92,1.02.61,1.78,1.54,2.29,2.78.51,1.24.76,2.78.76,4.61v12.12h-4.72v-11.81c0-1.02-.13-1.85-.4-2.51s-.67-1.15-1.22-1.47c-.55-.32-1.23-.48-2.04-.48-.63,0-1.24.11-1.81.32-.57.22-1.06.52-1.47.92s-.72.84-.95,1.35-.34,1.07-.34,1.68v12h-4.72v-11.85c0-.97-.14-1.77-.42-2.42-.28-.65-.69-1.14-1.22-1.49-.53-.34-1.18-.51-1.94-.51-.64,0-1.23.11-1.79.32-.56.22-1.04.51-1.45.9-.41.38-.72.83-.95,1.33s-.34,1.07-.34,1.68v12.04h-4.72Z"/>
        <path class="cls-1" d="m417.49,31.77c-2.01,0-3.8-.45-5.37-1.35-1.58-.9-2.82-2.14-3.73-3.71-.91-1.57-1.37-3.37-1.37-5.37s.46-3.8,1.37-5.37c.91-1.57,2.16-2.81,3.73-3.72,1.57-.9,3.37-1.35,5.37-1.35s3.76.45,5.33,1.35c1.58.9,2.81,2.14,3.71,3.72.9,1.58,1.35,3.37,1.35,5.37s-.45,3.8-1.35,5.37c-.9,1.58-2.14,2.81-3.71,3.71-1.57.9-3.35,1.35-5.33,1.35Zm0-4.15c1.09,0,2.06-.28,2.92-.84.85-.56,1.52-1.31,2.02-2.25.5-.94.73-2.01.7-3.2.03-1.22-.21-2.3-.7-3.24-.5-.94-1.17-1.68-2.02-2.23s-1.82-.82-2.92-.82-2.08.27-2.95.82-1.56,1.29-2.04,2.25c-.48.95-.72,2.03-.72,3.22s.24,2.26.72,3.2c.48.94,1.16,1.69,2.04,2.25.88.56,1.86.84,2.95.84Z"/>
        <path class="cls-1" d="m432.08,31.39V11.31h4.57l.08,4.12-.88.46c.25-.91.75-1.75,1.49-2.5.74-.75,1.61-1.35,2.63-1.81,1.02-.46,2.06-.69,3.12-.69,1.52,0,2.8.3,3.83.92,1.03.61,1.8,1.52,2.32,2.74.52,1.22.78,2.74.78,4.57v12.27h-4.69v-11.93c0-1.01-.14-1.86-.42-2.53-.28-.67-.71-1.17-1.3-1.49-.58-.32-1.29-.46-2.13-.44-.69,0-1.31.11-1.89.32-.57.22-1.07.52-1.49.92s-.75.84-.99,1.35c-.24.51-.36,1.07-.36,1.68v12.12h-4.69Z"/>
        <path class="cls-1" d="m453.49,15.65v-4.34h13.03v4.34h-13.03Zm3.96,15.74V6.2h4.69v25.19h-4.69Z"/>
        <path class="cls-1" d="m470.1,31.39V11.31h4.61l.08,6.4-.65-1.45c.28-1.02.76-1.93,1.45-2.74.69-.81,1.48-1.45,2.38-1.92.9-.47,1.85-.71,2.84-.71.43,0,.84.04,1.24.11.39.08.72.17.97.27l-1.26,5.14c-.28-.15-.62-.28-1.03-.38-.41-.1-.81-.15-1.22-.15-.64,0-1.24.12-1.81.36-.57.24-1.07.58-1.5,1.01-.43.43-.77.93-1.01,1.5s-.36,1.21-.36,1.92v10.71h-4.72Z"/>
        <path class="cls-1" d="m494.72,31.77c-2.11,0-3.97-.44-5.58-1.33s-2.87-2.1-3.77-3.64c-.9-1.54-1.35-3.3-1.35-5.28,0-1.57.25-3.01.76-4.3.51-1.3,1.21-2.42,2.11-3.37.9-.95,1.98-1.69,3.24-2.21s2.63-.78,4.13-.78c1.32,0,2.55.25,3.7.76s2.13,1.2,2.97,2.08c.84.88,1.48,1.92,1.92,3.12.44,1.21.65,2.52.63,3.94l-.04,1.64h-16.27l-.88-3.2h13.22l-.61.65v-.84c-.08-.79-.33-1.48-.76-2.08-.43-.6-.99-1.07-1.66-1.41-.67-.34-1.42-.51-2.23-.51-1.25,0-2.29.24-3.14.72s-1.49,1.17-1.92,2.08c-.43.9-.65,2.03-.65,3.37s.27,2.43.82,3.39c.55.97,1.32,1.71,2.32,2.23s2.18.78,3.53.78c.94,0,1.8-.15,2.59-.46.79-.3,1.64-.85,2.55-1.64l2.32,3.24c-.69.63-1.47,1.17-2.34,1.62-.88.44-1.8.79-2.76,1.05s-1.92.38-2.86.38Z"/>
        <path class="cls-1" d="m517.04,31.77c-2.11,0-3.97-.44-5.58-1.33-1.61-.89-2.87-2.1-3.77-3.64-.9-1.54-1.35-3.3-1.35-5.28,0-1.57.25-3.01.76-4.3.51-1.3,1.21-2.42,2.11-3.37.9-.95,1.98-1.69,3.24-2.21,1.26-.52,2.63-.78,4.13-.78,1.32,0,2.55.25,3.7.76,1.14.51,2.13,1.2,2.97,2.08.84.88,1.48,1.92,1.92,3.12.44,1.21.65,2.52.63,3.94l-.04,1.64h-16.27l-.88-3.2h13.22l-.61.65v-.84c-.08-.79-.33-1.48-.76-2.08s-.98-1.07-1.66-1.41c-.67-.34-1.42-.51-2.23-.51-1.24,0-2.29.24-3.14.72-.85.48-1.49,1.17-1.92,2.08-.43.9-.65,2.03-.65,3.37s.27,2.43.82,3.39c.55.97,1.32,1.71,2.32,2.23,1,.52,2.18.78,3.52.78.94,0,1.8-.15,2.59-.46.79-.3,1.64-.85,2.55-1.64l2.32,3.24c-.69.63-1.47,1.17-2.34,1.62s-1.8.79-2.76,1.05c-.96.25-1.92.38-2.86.38Z"/>
        <path class="cls-1" d="m529.43,38.62v-3.81h6.17l-.23.3V8.07l.38.46h-6.32v-3.81h10.32v33.91h-10.32Z"/>
        <path class="cls-3" d="m108.73,79.77c-1.93,0-3.7-.33-5.3-.99s-2.98-1.61-4.15-2.84c-1.17-1.23-2.08-2.69-2.72-4.38-.65-1.69-.97-3.54-.97-5.54s.34-3.72,1.03-5.37c.69-1.65,1.64-3.1,2.86-4.34,1.22-1.24,2.64-2.21,4.27-2.9s3.39-1.03,5.3-1.03c1.3,0,2.55.19,3.77.57s2.34.91,3.35,1.58c1.02.67,1.87,1.45,2.55,2.34l-3.16,3.47c-.66-.69-1.34-1.26-2.04-1.73-.7-.47-1.42-.83-2.17-1.07-.75-.24-1.52-.36-2.31-.36-1.17,0-2.27.22-3.3.65s-1.92,1.04-2.67,1.83c-.75.79-1.34,1.72-1.77,2.8-.43,1.08-.65,2.28-.65,3.6s.21,2.57.63,3.66c.42,1.09,1.02,2.03,1.79,2.82.77.79,1.7,1.39,2.78,1.81,1.08.42,2.27.63,3.56.63.84,0,1.65-.11,2.44-.34.79-.23,1.52-.55,2.19-.97.67-.42,1.29-.91,1.85-1.47l2.44,3.92c-.61.69-1.42,1.31-2.44,1.87-1.02.56-2.15,1-3.41,1.31-1.26.32-2.51.48-3.75.48Z"/>
        <path class="cls-3" d="m125.68,88.15l4.27-9.87.04,3.12-9.91-22.1h5.41l5.52,13.11c.18.33.36.77.53,1.31.18.55.33,1.09.46,1.62l-.95.31c.18-.48.37-1,.57-1.54.2-.55.39-1.11.57-1.7l4.72-13.11h5.45l-8.38,20.08-3.43,8.76h-4.88Z"/>
        <path class="cls-3" d="m156.39,79.77c-.89,0-1.76-.13-2.61-.4-.85-.27-1.62-.63-2.3-1.08-.69-.46-1.26-.97-1.71-1.54-.46-.57-.76-1.15-.91-1.73l1.11-.5-.12,4.8h-4.53v-28.12h4.69v12.76l-.84-.38c.13-.61.41-1.19.86-1.73.44-.55,1-1.04,1.66-1.49.66-.44,1.38-.8,2.17-1.07.79-.27,1.59-.4,2.4-.4,1.8,0,3.4.45,4.78,1.33,1.38.89,2.48,2.12,3.28,3.7.8,1.58,1.2,3.37,1.2,5.37s-.39,3.84-1.18,5.41c-.79,1.58-1.87,2.81-3.26,3.71-1.38.9-2.94,1.35-4.67,1.35Zm-.99-4.11c1.07,0,2.02-.27,2.86-.82s1.5-1.3,1.98-2.25.72-2.05.72-3.3-.23-2.3-.71-3.24c-.47-.94-1.12-1.68-1.96-2.21-.84-.53-1.8-.8-2.9-.8s-2.06.27-2.89.8c-.84.53-1.5,1.27-1.98,2.21-.48.94-.72,2.02-.72,3.24s.24,2.34.72,3.3,1.14,1.7,1.98,2.25c.84.55,1.8.82,2.89.82Z"/>
        <path class="cls-3" d="m179.1,79.77c-2.11,0-3.97-.44-5.58-1.33-1.61-.89-2.87-2.1-3.77-3.64s-1.35-3.3-1.35-5.28c0-1.57.25-3.01.76-4.3.51-1.3,1.21-2.42,2.12-3.37.9-.95,1.98-1.69,3.24-2.21s2.63-.78,4.13-.78c1.32,0,2.55.25,3.7.76,1.14.51,2.13,1.2,2.97,2.08.84.88,1.48,1.92,1.92,3.12.45,1.21.65,2.52.63,3.94l-.04,1.64h-16.27l-.88-3.2h13.22l-.61.65v-.84c-.08-.79-.33-1.48-.76-2.08s-.98-1.07-1.66-1.41c-.67-.34-1.42-.51-2.23-.51-1.25,0-2.29.24-3.14.72s-1.49,1.17-1.92,2.08c-.43.9-.65,2.03-.65,3.37s.27,2.43.82,3.39c.54.97,1.32,1.71,2.32,2.23,1,.52,2.18.78,3.52.78.94,0,1.8-.15,2.59-.46.79-.3,1.64-.85,2.55-1.64l2.32,3.24c-.69.63-1.47,1.17-2.34,1.62-.88.44-1.8.79-2.76,1.05s-1.92.38-2.86.38Z"/>
        <path class="cls-3" d="m192.01,79.39v-20.08h4.61l.08,6.4-.65-1.45c.28-1.02.76-1.93,1.45-2.74.69-.81,1.48-1.45,2.38-1.92.9-.47,1.85-.71,2.84-.71.43,0,.84.04,1.24.11.39.08.72.17.97.27l-1.26,5.14c-.28-.15-.62-.28-1.03-.38-.41-.1-.81-.15-1.22-.15-.64,0-1.24.12-1.81.36-.57.24-1.07.58-1.5,1.01-.43.43-.77.93-1.01,1.5-.24.57-.36,1.21-.36,1.92v10.71h-4.72Z"/>
        <path class="cls-3" d="m214.76,79.77c-1.78,0-3.37-.3-4.78-.9s-2.56-1.45-3.45-2.57l3.05-2.63c.76.86,1.61,1.49,2.55,1.87.94.38,1.93.57,2.97.57.43,0,.82-.05,1.16-.15s.64-.25.9-.46.45-.44.59-.71c.14-.27.21-.57.21-.9,0-.61-.23-1.09-.69-1.45-.25-.18-.65-.37-1.2-.57-.55-.2-1.25-.41-2.11-.61-1.37-.36-2.51-.77-3.43-1.24-.92-.47-1.63-1-2.13-1.58-.43-.48-.76-1.03-.97-1.64-.22-.61-.32-1.27-.32-1.98,0-.89.2-1.7.59-2.42s.93-1.35,1.62-1.89c.69-.53,1.49-.94,2.4-1.22.92-.28,1.87-.42,2.86-.42s2,.13,2.95.38c.95.25,1.84.62,2.67,1.09.82.47,1.53,1.04,2.11,1.7l-2.59,2.86c-.48-.46-1.01-.86-1.58-1.22-.57-.36-1.15-.64-1.73-.86-.58-.21-1.13-.32-1.64-.32s-.91.04-1.29.13c-.38.09-.7.22-.95.4s-.45.4-.59.67c-.14.27-.21.58-.21.93.02.31.11.59.25.86.14.27.34.49.59.67.28.18.7.38,1.26.61s1.28.45,2.17.65c1.24.33,2.29.7,3.12,1.11s1.5.88,1.98,1.41c.48.46.83.99,1.03,1.6s.3,1.28.3,2.02c0,1.19-.34,2.26-1.01,3.2-.67.94-1.59,1.68-2.74,2.21-1.16.53-2.46.8-3.91.8Z"/>
        <path class="cls-3" d="m235.94,79.77c-2.11,0-3.97-.44-5.58-1.33s-2.87-2.1-3.77-3.64c-.9-1.54-1.35-3.3-1.35-5.28,0-1.57.25-3.01.76-4.3.51-1.3,1.21-2.42,2.11-3.37.9-.95,1.98-1.69,3.24-2.21,1.26-.52,2.63-.78,4.13-.78,1.32,0,2.55.25,3.7.76s2.13,1.2,2.97,2.08c.84.88,1.48,1.92,1.92,3.12.44,1.21.65,2.52.63,3.94l-.04,1.64h-16.27l-.88-3.2h13.22l-.61.65v-.84c-.08-.79-.33-1.48-.76-2.08-.43-.6-.99-1.07-1.66-1.41-.67-.34-1.42-.51-2.23-.51-1.25,0-2.29.24-3.14.72-.85.48-1.49,1.17-1.92,2.08-.43.9-.65,2.03-.65,3.37s.27,2.43.82,3.39c.55.97,1.32,1.71,2.32,2.23,1,.52,2.18.78,3.52.78.94,0,1.8-.15,2.59-.46.79-.3,1.64-.85,2.55-1.64l2.32,3.24c-.69.63-1.47,1.17-2.34,1.62-.88.44-1.8.79-2.76,1.05-.97.25-1.92.38-2.86.38Z"/>
        <path class="cls-3" d="m257.47,79.77c-1.88,0-3.57-.46-5.07-1.37-1.5-.92-2.68-2.16-3.54-3.73-.86-1.57-1.3-3.35-1.3-5.33s.43-3.76,1.3-5.33c.86-1.57,2.04-2.82,3.54-3.73,1.5-.92,3.19-1.37,5.07-1.37s3.44.34,4.92,1.03c1.47.69,2.62,1.64,3.43,2.86l-2.59,3.12c-.38-.53-.86-1.02-1.45-1.45-.58-.43-1.21-.77-1.87-1.03-.66-.25-1.32-.38-1.98-.38-1.12,0-2.11.27-2.99.82-.88.55-1.57,1.29-2.08,2.25-.51.95-.76,2.03-.76,3.22s.26,2.26.78,3.2c.52.94,1.22,1.69,2.11,2.25.89.56,1.88.84,2.97.84.66,0,1.3-.11,1.92-.32.62-.22,1.21-.53,1.77-.93s1.08-.91,1.56-1.52l2.59,3.16c-.86,1.12-2.05,2.03-3.56,2.72s-3.1,1.05-4.78,1.05Z"/>
        <path class="cls-3" d="m276.37,79.77c-1.45,0-2.71-.32-3.77-.97-1.07-.65-1.88-1.57-2.44-2.78-.56-1.21-.84-2.65-.84-4.32v-12.38h4.69v11.39c0,1.07.17,1.97.5,2.72.33.75.81,1.33,1.45,1.73.63.41,1.4.61,2.29.61.66,0,1.26-.11,1.81-.32.55-.22,1.02-.52,1.43-.91.41-.39.72-.86.95-1.41.23-.55.34-1.14.34-1.77v-12.04h4.69v20.08h-4.57l-.08-4.19.84-.46c-.3.97-.82,1.82-1.54,2.57s-1.58,1.35-2.57,1.79c-.99.44-2.04.67-3.16.67Z"/>
        <path class="cls-3" d="m292.94,79.39v-20.08h4.61l.08,6.4-.65-1.45c.28-1.02.76-1.93,1.45-2.74.69-.81,1.48-1.45,2.38-1.92.9-.47,1.85-.71,2.84-.71.43,0,.84.04,1.24.11.39.08.72.17.97.27l-1.26,5.14c-.28-.15-.62-.28-1.03-.38-.41-.1-.81-.15-1.22-.15-.64,0-1.24.12-1.81.36-.57.24-1.07.58-1.5,1.01-.43.43-.77.93-1.01,1.5s-.36,1.21-.36,1.92v10.71h-4.72Z"/>
        <path class="cls-3" d="m311.8,55.04c-.94,0-1.67-.23-2.19-.71-.52-.47-.78-1.14-.78-2,0-.81.27-1.47.8-1.98.53-.51,1.26-.76,2.17-.76.96,0,1.71.24,2.23.71s.78,1.15.78,2.04c0,.79-.27,1.44-.8,1.94-.53.51-1.27.76-2.21.76Zm-2.29,24.35v-20.08h4.69v20.08h-4.69Z"/>
        <path class="cls-3" d="m318.35,63.65v-4.34h13.03v4.34h-13.03Zm3.96,15.74v-25.18h4.69v25.18h-4.69Z"/>
        <path class="cls-3" d="m338.01,88.15l4.27-9.87.04,3.12-9.91-22.1h5.41l5.53,13.11c.18.33.36.77.53,1.31.18.55.33,1.09.46,1.62l-.95.31c.18-.48.37-1,.57-1.54s.39-1.11.57-1.7l4.72-13.11h5.45l-8.38,20.08-3.43,8.76h-4.88Z"/>
      </g>
    </g>
  </g>
</svg>