<?xml version="1.0" encoding="utf-8"?>
<!-- Generator: Adobe Illustrator 28.1.0, SVG Export Plug-In . SVG Version: 6.00 Build 0)  -->
<svg version="1.1" id="Ebene_1" xmlns="http://www.w3.org/2000/svg" xmlns:xlink="http://www.w3.org/1999/xlink" x="0px" y="0px"
	 viewBox="0 0 146.8 56.7" style="enable-background:new 0 0 146.8 56.7;" xml:space="preserve">
<style type="text/css">
	.st0{fill:#FFFFFF;}
</style>
<path class="st0" d="M116.8,15.6c4.7-5.5,7.3-10.1,9.5-15.6H90.1v31.3C97.2,30.3,107.3,26.9,116.8,15.6z"/>
<path class="st0" d="M146.7,0h-18.1c-2.2,5.9-5.5,11.9-10.5,17.8c-9.9,11.6-20.8,15.1-28.1,16.1v4.4h56.7V0z"/>
<path class="st0" d="M90.1,40.7h56.7v15.9H90.1V40.7z M98.2,48.7c1.3-0.1,1.8-0.9,1.8-2.4c0-2.1-0.9-2.7-3.5-2.7
	c-1.6,0-2.5,0-3.6,0.1v10.3c1.2,0.1,2.2,0.1,4.1,0.1c2.4,0,3.4-0.6,3.4-2.7C100.3,49.9,99.8,48.9,98.2,48.7L98.2,48.7z M96.4,45.2
	c1.4,0,1.8,0.3,1.8,1.4c0,1.2-0.4,1.5-1.7,1.5h-1.9v-2.9H96.4z M94.7,52.7v-3.2h1.9c1.4,0,1.9,0.4,1.9,1.7c0,1.2-0.4,1.5-1.8,1.5
	L94.7,52.7z M106,43.6c-3.1,0-4.2,1.3-4.2,5.3s1.1,5.3,4.2,5.3c3.1,0,4.2-1.3,4.2-5.3S109.2,43.6,106,43.6z M106,45.2
	c1.7,0,2.3,0.9,2.3,3.7c0,2.9-0.5,3.7-2.3,3.7c-1.7,0-2.3-0.9-2.3-3.7C103.8,46.1,104.3,45.2,106,45.2z M120.6,43.8h-1.8v6.6
	c0,0.6,0,1.1,0.1,1.7h-0.2c-0.2-0.6-0.5-1.2-0.7-1.6l-2.8-6.1c-0.2-0.4-0.4-0.6-0.8-0.6h-1.4c-0.4,0-0.7,0.2-0.7,0.7v9.6h1.8v-6.9
	c0-0.5,0-1-0.1-1.5h0.2c0.1,0.5,0.4,1.1,0.6,1.5l2.9,6.3c0.2,0.4,0.4,0.6,0.8,0.6h1.5c0.4,0,0.7-0.2,0.7-0.7V43.8z M131.2,43.8h-1.8
	v6.6c0,0.6,0,1.1,0.1,1.7h-0.2c-0.2-0.6-0.5-1.2-0.7-1.6l-2.8-6.1c-0.2-0.4-0.4-0.6-0.8-0.6h-1.4c-0.4,0-0.7,0.2-0.7,0.7v9.6h1.8
	v-6.9c0-0.5,0-1-0.1-1.5h0.2c0.1,0.5,0.4,1.1,0.6,1.5l2.9,6.3c0.2,0.4,0.4,0.6,0.8,0.6h1.5c0.4,0,0.7-0.2,0.7-0.7V43.8z"/>
<g>
	<path class="st0" d="M7.6,50.1c0,3-1,4.2-3.7,4.2C1,54.3,0,53.1,0,50.1v-6.3h1.5v6.3c0,2.1,0.6,2.8,2.3,2.8c1.7,0,2.3-0.7,2.3-2.8
		v-6.3h1.5V50.1z"/>
	<path class="st0" d="M18.1,53.5c0,0.4-0.2,0.6-0.6,0.6h-1.4c-0.3,0-0.5-0.1-0.6-0.5l-3.2-7c-0.2-0.4-0.5-1-0.6-1.4h-0.2
		c0.1,0.5,0.1,1,0.1,1.4v7.5H10v-9.7c0-0.4,0.2-0.6,0.6-0.6h1.4c0.3,0,0.5,0.1,0.7,0.5l3.1,6.8c0.2,0.4,0.5,1,0.7,1.5h0.2
		c0-0.5-0.1-1.1-0.1-1.6v-7.2h1.5V53.5z"/>
	<path class="st0" d="M20.6,54.1V43.8h1.5v10.3H20.6z"/>
	<path class="st0" d="M29.2,53.6c-0.1,0.2-0.3,0.4-0.6,0.4h-1.5c-0.3,0-0.5-0.2-0.6-0.4l-3-9.9h1.5l2.3,8c0.1,0.4,0.2,0.8,0.3,1.1
		h0.4c0.1-0.4,0.2-0.8,0.3-1.1l2.3-8h1.5L29.2,53.6z"/>
	<path class="st0" d="M40.1,54c-1.4,0.1-2.9,0.1-4.4,0.1c-1.3,0-2.1-0.7-2.1-1.8v-6.6c0-1.1,0.8-1.8,2.1-1.8c1.5,0,3.1,0,4.4,0.1
		L40,45h-4.1c-0.6,0-0.8,0.3-0.8,1V48h4.3v1.2h-4.3v2.6c0,0.7,0.2,1,0.8,1H40L40.1,54z"/>
	<path class="st0" d="M47.8,54.1L47,50.9c-0.2-0.7-0.6-1-1.3-1l-2.1,0v4.2h-1.5V43.8c1.1-0.1,1.9-0.1,3.6-0.1c2.4,0,3.4,0.7,3.4,3
		c0,1.6-0.5,2.4-1.9,2.6v0.1c0.5,0.1,1.1,0.6,1.3,1.5l1,3.2H47.8z M45.6,48.5c1.4,0,1.9-0.4,1.9-1.8c0-1.4-0.5-1.8-1.9-1.8
		c-0.8,0-1.5,0-2.1,0v3.6H45.6z"/>
	<path class="st0" d="M57.3,43.9L57.3,45c-0.9,0-2-0.1-3-0.1c-1.4,0-1.9,0.1-1.9,1.4c0,1.1,0.4,1.3,1.2,1.6l2,0.6
		c1.6,0.4,2.1,1.4,2.1,2.9c0,2.4-1,2.8-3.5,2.8c-0.7,0-1.8,0-3.2-0.3l0.1-1.1c1.9,0.1,2.4,0.1,3.2,0.1c1.5,0,2-0.2,2-1.5
		c0-1.1-0.4-1.4-1.2-1.6l-2.1-0.6c-1.5-0.4-2-1.4-2-2.9c0-2.4,1.1-2.7,3.4-2.7C55.2,43.6,56.3,43.7,57.3,43.9z"/>
	<path class="st0" d="M59.7,54.1V43.8h1.5v10.3H59.7z"/>
	<path class="st0" d="M67.6,45.1v9h-1.5v-9h-3.2v-1.3h8v1.3H67.6z"/>
	<path class="st0" d="M72.9,51l-1,3.1h-1.5l3.2-9.9c0.1-0.3,0.3-0.4,0.5-0.4h1.5c0.3,0,0.5,0.1,0.6,0.4l3.2,9.9H78L77,51H72.9z
		 M73.4,42.7c-0.3,0-0.4-0.1-0.4-0.4v-0.8c0-0.2,0.1-0.4,0.4-0.4h0.5c0.3,0,0.4,0.2,0.4,0.4v0.8c0,0.3-0.1,0.4-0.4,0.4H73.4z
		 M75.4,45.8c-0.1-0.3-0.2-0.6-0.2-0.8h-0.4c-0.1,0.3-0.2,0.6-0.3,0.8l-1.2,3.9h3.3L75.4,45.8z M76.1,42.7c-0.3,0-0.4-0.1-0.4-0.4
		v-0.8c0-0.2,0.1-0.4,0.4-0.4h0.5c0.3,0,0.4,0.2,0.4,0.4v0.8c0,0.3-0.1,0.4-0.4,0.4H76.1z"/>
	<path class="st0" d="M83.9,45.1v9h-1.5v-9h-3.2v-1.3h8v1.3H83.9z"/>
</g>
</svg>
