<?xml version="1.0" encoding="utf-8"?>
<!-- Generator: Adobe Illustrator 28.1.0, SVG Export Plug-In . SVG Version: 6.00 Build 0)  -->
<svg version="1.1" id="Ebene_1" xmlns="http://www.w3.org/2000/svg" xmlns:xlink="http://www.w3.org/1999/xlink" x="0px" y="0px"
	 viewBox="0 0 499.1 279.9" style="enable-background:new 0 0 499.1 279.9;" xml:space="preserve">
<style type="text/css">
	.st0{fill:#222221;}
	.st1{fill:#B1093D;}
</style>
<g>
	<path class="st0" d="M38.9,212.2c2.7,9.1,5.5,17.4,8.2,24.9c2.7,7.4,5.4,14.3,8.1,20.5c2-6.7,3.9-14.6,5.9-23.7
		c2-9.1,3.9-18.7,5.7-28.9h5.7c-1.1,6.1-2.1,11.8-3.1,17.1c-1,5.3-2.1,10.4-3.3,15.2c-1.1,4.8-2.4,9.4-3.6,13.8
		c-1.3,4.4-2.6,8.7-4.1,13h-6.2c-1.3-3.3-2.7-6.5-4-9.8s-2.7-6.6-4-10c-1.3-3.4-2.6-7-4-10.8c-1.3-3.8-2.6-7.7-4-12
		c-1.4,4.2-2.7,8.2-4,12c-1.3,3.8-2.6,7.4-4,10.8s-2.6,6.8-4,10c-1.3,3.2-2.7,6.5-4.1,9.7h-6.1c-1.5-4.3-3-8.6-4.2-13
		c-1.3-4.4-2.5-9-3.6-13.8c-1.1-4.8-2.2-9.9-3.2-15.2c-1-5.3-2-11-3.1-17.1h6c0.9,5,1.8,9.9,2.7,14.7c0.9,4.8,1.9,9.5,2.9,14
		c1,4.5,2,8.8,3.1,12.8c1,4,2.1,7.7,3.1,11.1c2.4-6.3,5-13.2,7.9-20.5c2.8-7.4,5.6-15.6,8.3-24.8L38.9,212.2L38.9,212.2z"/>
	<path class="st0" d="M84.6,264.1v-59h5.6v16.2c1.8-0.7,3.7-1.2,5.6-1.6s3.8-0.6,5.6-0.6c3.4,0,6.3,0.5,8.5,1.5
		c2.3,1,4.1,2.3,5.5,4.1c1.4,1.8,2.3,3.9,2.9,6.4c0.5,2.5,0.8,5.3,0.8,8.3v24.7h-5.6v-22.9c0-3.1-0.2-5.8-0.6-7.9
		c-0.4-2.2-1.1-3.9-2.1-5.3c-1-1.4-2.3-2.3-4-2.9c-1.7-0.6-3.7-0.9-6.2-0.9c-1,0-2,0.1-3.1,0.3c-1.1,0.2-2.2,0.4-3.1,0.6
		c-1,0.2-1.8,0.4-2.6,0.6c-0.8,0.2-1.3,0.4-1.5,0.5v38L84.6,264.1L84.6,264.1z"/>
	<path class="st0" d="M132.3,242c0-3.9,0.6-7.2,1.7-10.1c1.1-2.9,2.6-5.3,4.4-7.2c1.8-1.9,3.8-3.4,6.1-4.3c2.3-0.9,4.7-1.4,7.1-1.4
		c5.4,0,9.7,1.8,12.9,5.3c3.2,3.5,4.8,9,4.8,16.3c0,0.5,0,0.9,0,1.4c0,0.5-0.1,0.9-0.1,1.3h-31c0.2,5.4,1.5,9.6,4,12.5
		c2.5,2.9,6.5,4.4,12,4.4c3,0,5.4-0.3,7.2-0.9c1.8-0.6,3-1.1,3.8-1.5l1,4.8c-0.8,0.5-2.3,1-4.5,1.6s-4.8,0.9-7.7,0.9
		c-3.9,0-7.2-0.6-9.9-1.7c-2.7-1.1-5-2.7-6.7-4.8s-3-4.5-3.8-7.3C132.7,248.4,132.3,245.3,132.3,242z M163.6,238.5
		c-0.1-4.6-1.2-8.2-3.2-10.8c-2.1-2.6-5-3.8-8.7-3.8c-2,0-3.8,0.4-5.3,1.2c-1.6,0.8-2.9,1.9-4.1,3.2c-1.2,1.3-2.1,2.9-2.7,4.7
		c-0.7,1.8-1,3.6-1.2,5.6L163.6,238.5L163.6,238.5z"/>
	<path class="st0" d="M198.5,219.1c1.8,0,3.5,0.1,5.2,0.4c1.6,0.3,2.7,0.6,3.4,0.9l-1.1,4.8c-0.5-0.2-1.4-0.5-2.8-0.7
		c-1.4-0.3-3.2-0.4-5.5-0.4c-2.4,0-4.3,0.2-5.8,0.5c-1.5,0.3-2.4,0.6-2.9,0.9v38.7h-5.6V222c1.4-0.6,3.4-1.3,5.9-1.9
		C191.8,219.4,194.9,219.1,198.5,219.1z"/>
	<path class="st0" d="M214.4,242c0-3.9,0.6-7.2,1.7-10.1c1.1-2.9,2.6-5.3,4.4-7.2c1.8-1.9,3.8-3.4,6.1-4.3s4.7-1.4,7.1-1.4
		c5.4,0,9.7,1.8,12.9,5.3c3.2,3.5,4.8,9,4.8,16.3c0,0.5,0,0.9,0,1.4c0,0.5-0.1,0.9-0.1,1.3h-31c0.2,5.4,1.5,9.6,4,12.5
		c2.5,2.9,6.5,4.4,12,4.4c3,0,5.4-0.3,7.2-0.9c1.8-0.6,3-1.1,3.8-1.5l1,4.8c-0.8,0.5-2.3,1-4.5,1.6c-2.2,0.6-4.8,0.9-7.7,0.9
		c-3.9,0-7.2-0.6-9.9-1.7s-5-2.7-6.7-4.8c-1.8-2-3-4.5-3.8-7.3C214.8,248.4,214.4,245.3,214.4,242z M245.8,238.5
		c-0.1-4.6-1.2-8.2-3.2-10.8c-2-2.6-5-3.8-8.7-3.8c-2,0-3.8,0.4-5.3,1.2c-1.6,0.8-2.9,1.9-4.1,3.2c-1.2,1.3-2.1,2.9-2.7,4.7
		c-0.7,1.8-1,3.6-1.2,5.6L245.8,238.5L245.8,238.5z"/>
	<path class="st0" d="M305.4,236.1h5.8v26.4c-1.1,0.5-3.2,1-6.4,1.8c-3.2,0.7-7,1.1-11.7,1.1c-3.9,0-7.5-0.7-10.8-2
		c-3.3-1.4-6.2-3.3-8.6-5.9c-2.4-2.6-4.3-5.8-5.7-9.6s-2-8.2-2-13.2s0.7-9.4,2.2-13.2c1.5-3.8,3.5-7.1,6-9.6
		c2.5-2.6,5.5-4.6,8.8-5.9c3.4-1.4,6.9-2.1,10.8-2.1c4.4,0,8,0.5,10.8,1.4c2.8,0.9,4.9,1.8,6.2,2.7l-2,5c-1.6-1.1-3.8-2.1-6.5-2.8
		c-2.7-0.7-5.7-1.1-8.9-1.1c-3,0-5.8,0.5-8.4,1.6c-2.6,1.1-4.9,2.7-6.8,4.9c-1.9,2.2-3.5,4.8-4.6,8c-1.1,3.2-1.7,6.9-1.7,11.1
		c0,3.9,0.5,7.5,1.4,10.6c0.9,3.2,2.3,5.9,4.1,8.1c1.9,2.2,4.1,4,6.9,5.2s5.9,1.8,9.5,1.8c2.9,0,5.3-0.2,7.3-0.5
		c2-0.3,3.3-0.6,4-0.9L305.4,236.1L305.4,236.1z"/>
	<path class="st0" d="M341.1,219.1c1.8,0,3.5,0.1,5.2,0.4c1.6,0.3,2.7,0.6,3.4,0.9l-1.1,4.8c-0.5-0.2-1.4-0.5-2.8-0.7
		c-1.4-0.3-3.2-0.4-5.5-0.4c-2.4,0-4.3,0.2-5.8,0.5c-1.5,0.3-2.4,0.6-2.9,0.9v38.7H326V222c1.4-0.6,3.4-1.3,5.9-1.9
		C334.4,219.4,337.5,219.1,341.1,219.1z"/>
	<path class="st0" d="M397.3,242c0,3.5-0.5,6.6-1.5,9.5s-2.4,5.3-4.2,7.3c-1.8,2-3.9,3.5-6.4,4.7c-2.4,1.1-5.2,1.7-8.1,1.7
		c-3,0-5.7-0.6-8.1-1.7c-2.4-1.1-4.6-2.7-6.4-4.7c-1.8-2-3.2-4.4-4.2-7.3c-1-2.8-1.5-6-1.5-9.5c0-3.5,0.5-6.6,1.5-9.5
		c1-2.8,2.4-5.3,4.2-7.3c1.8-2,3.9-3.6,6.4-4.7c2.4-1.1,5.2-1.7,8.1-1.7c3,0,5.7,0.6,8.1,1.7c2.4,1.1,4.6,2.7,6.4,4.7
		c1.8,2,3.2,4.5,4.2,7.3C396.8,235.4,397.3,238.6,397.3,242z M391.4,242c0-5.5-1.3-9.9-3.8-13.2c-2.6-3.3-6-4.9-10.4-4.9
		c-4.4,0-7.9,1.6-10.4,4.9c-2.6,3.3-3.8,7.7-3.8,13.2c0,5.5,1.3,9.9,3.8,13.2c2.6,3.2,6,4.9,10.4,4.9c4.4,0,7.9-1.6,10.4-4.9
		C390.2,251.9,391.4,247.6,391.4,242z"/>
	<path class="st0" d="M445,262.5c-1.7,0.5-3.9,1-6.7,1.5c-2.8,0.6-6.2,0.9-10.2,0.9c-3.3,0-6.1-0.5-8.3-1.5c-2.2-1-4-2.3-5.4-4.1
		s-2.3-3.9-2.9-6.4c-0.6-2.5-0.9-5.3-0.9-8.3v-24.8h5.6v23c0,3.1,0.2,5.8,0.7,7.9c0.5,2.2,1.2,3.9,2.2,5.3c1,1.3,2.3,2.3,4,2.9
		c1.6,0.6,3.6,0.9,5.9,0.9c2.6,0,4.9-0.1,6.8-0.4c1.9-0.3,3.2-0.5,3.7-0.8v-38.8h5.6L445,262.5L445,262.5z"/>
	<path class="st0" d="M466.9,279.9h-5.6v-58.4c1.6-0.6,3.8-1.1,6.3-1.6c2.6-0.5,5.8-0.8,9.7-0.8c3.2,0,6.2,0.5,8.8,1.6
		c2.6,1.1,4.9,2.6,6.8,4.6c1.9,2,3.4,4.4,4.4,7.3s1.7,6.1,1.6,9.6c-0.1,3.1-0.7,6.4-1.3,8.5c-0.7,2.3-1.5,4.2-3.1,6.5
		c-1.4,2.1-3.8,4.1-6.6,5.5c-2.1,1-5,1.9-8.4,2.2c-3.6,0.2-8.5-0.1-12.8-1.5L466.9,279.9L466.9,279.9z M466.9,258.1
		c1.9,0.8,6.3,1.9,12.1,1.8c2,0,4.5-0.6,6.6-1.8c2.2-1.2,3.9-3.1,4.7-4.5c1.8-3.2,2.8-6.8,3-11.5c0.2-5.8-1.5-10.3-4.4-13.4
		c-2.9-3.1-6.7-4.7-11.5-4.7c-2.7,0-4.9,0.1-6.6,0.4c-1.7,0.3-2.9,0.5-3.8,0.8L466.9,258.1L466.9,258.1z"/>
</g>
<g>
	<path class="st1" d="M324.3,125.1c-22.2,1.1-33.4-30.6-35-48.3c-1.3-14.7,5-40.5,24.8-32c2.3,1,4.3,2.5,6.2,4
		c-8-13.3-18.8-24.5-31.8-33c1.6,2.1,3.2,4.3,4.2,6.8c8.2,19.8-14.8,27.3-30.5,25.8c-18.9-1.8-49.2-14.7-49.1-37.4
		c0-2.3,0.8-4.7,1.9-6.6C198.4,9.6,184,19.8,173.7,34c4.5-1.8,9.3-3.1,14.1-3.5c25.9-2,49.2,16.8,49.7,43.4
		c0.6,29.5-25.1,53.8-54.1,54c-4.7,0-9.4-0.9-13.9-2.4c9.9,18.4,25,33.2,43.6,42.7c-0.9-3.5-1.6-7.3-1.5-11
		c0.5-28.4,24.7-54,53.7-53.6c25.7,0.3,43.1,22.7,40.4,47.5c-0.4,3.3-1.3,6.6-2.3,9.8c12.2-9.8,21.1-22.8,26.2-37.6
		C328,124.3,326.1,125,324.3,125.1z"/>
	<path class="st1" d="M261.1,36c9.8,1.1,26.3-3.3,20.9-16.4c-4.5-10.9-18-17.1-28.9-19c-8.4-1.5-24.7-0.7-24.6,11.1
		C228.6,26.4,249,34.6,261.1,36z"/>
</g>
</svg>
