<svg data-v-65e17373="" xmlns="http://www.w3.org/2000/svg" viewBox="0 -8 138 60" aria-hidden="true" focusable="false" class="icon pr-5 bg-white" icon="true" style="height: 140px;"><path d="M26.29.56C10.51-2.32-3 13 .94 28c4.22 15.9 29.41 23.79 41.21 10.9 5.64-6.15 5.56-16.16 1.62-23.76C40.1 8 34.51 2.06 26.29.56" style="fill: rgb(0, 230, 204);"></path><path d="m53.87 8.87 6.38-3.34h-6.38V3.87h6.92v3.34l-6.37 3.32h6.37v1.67h-6.92ZM64.74 6.12c2 0 3.17 1.11 3.17 3v.5h-4.47A1.3 1.3 0 0 0 64.81 11a1.2 1.2 0 0 0 1.32-.87h1.79c-.18 1.28-1.27 2.23-3.1 2.23a3 3 0 0 1-3.19-3.14 2.89 2.89 0 0 1 3.11-3.1m1.42 2.51a1.25 1.25 0 0 0-1.39-1.18 1.23 1.23 0 0 0-1.34 1.18ZM69 6.24h1.8v1.44a2.29 2.29 0 0 1 2.38-1.56c1.5 0 2.41 1 2.41 2.83v3.25h-1.8v-3c0-1.1-.34-1.51-1.26-1.51S70.8 8.3 70.8 10v2.2H69ZM81.63 12.2h-3a.88.88 0 0 1-1-1V7.81h-1.4V6.24h1.4V5.07l1.79-.55v1.72h2v1.57h-2v2.82h2.2ZM83.72 6.24h3.86v1.57h-3v4.39h-1.8v-5a.88.88 0 0 1 .94-.96M88.31 9.49V6.24h1.81v3c0 1.1.33 1.51 1.25 1.51s1.74-.6 1.74-2.26V6.24h1.8v6h-1.8v-1.48a2.32 2.32 0 0 1-2.39 1.56c-1.5 0-2.41-1.01-2.41-2.83M96.27 6.24h1.8v1.31a2 2 0 0 1 2-1.43 1.66 1.66 0 0 1 1.73 1.4 2.22 2.22 0 0 1 2.2-1.4c1.67 0 2.15 1.26 2.15 3v3.08h-1.8v-3c0-1.13-.21-1.5-.88-1.5-1.1 0-1.36.88-1.36 2.38v2.12h-1.8v-3c0-1.13-.21-1.5-.88-1.5-1.1 0-1.36.88-1.36 2.38v2.12h-1.8ZM54.08 17.31h3.06c2.23 0 4.55.58 4.55 4.16s-2.32 4.17-4.55 4.17h-3.06ZM57.14 24c1.44 0 2.65-.08 2.65-2.5S58.57 19 57.14 19H56v5ZM62.58 24.07h1.67v-2.82h-1.42v-1.57H65a.84.84 0 0 1 1 .92v3.47h1.68v1.57h-5Zm2.36-6.95c.66 0 1.13.34 1.13 1s-.47.95-1.13.95-1.1-.31-1.1-.95.43-1 1.1-1M68.2 22.65c0-1.7.87-3.09 2.75-3.09a2.4 2.4 0 0 1 2.33 1.33v-1.21h1.79v7.46a.87.87 0 0 1-1 1h-5v-1.61h4.15v-2.1A2.41 2.41 0 0 1 71 25.76c-1.93 0-2.8-1.4-2.8-3.11m3.42 1.54c1 0 1.65-.49 1.65-1.54s-.62-1.51-1.65-1.51S70 21.6 70 22.65s.6 1.54 1.62 1.54M76.24 24.07h1.66v-2.82h-1.41v-1.57h2.11a.84.84 0 0 1 1 .92v3.47h1.68v1.57h-5Zm2.35-6.95c.66 0 1.13.34 1.13 1s-.47.95-1.13.95-1.1-.31-1.1-.95.44-1 1.1-1M86.63 25.64h-3a.88.88 0 0 1-1-1v-3.4h-1.39v-1.56h1.39v-1.17l1.8-.55v1.72h2v1.57h-2v2.82h2.2ZM89.74 22.19l1.92-.2c0-.72-.35-1-1.23-1s-1.14.32-1.19 1h-1.69c0-1.52 1.35-2.36 3-2.36s3 .83 3 2.66v1.85h.87v1.57H93a.8.8 0 0 1-.89-.86v-.64c-.27.87-.92 1.62-2.59 1.62-1.86 0-2.15-1.14-2.15-1.75.04-1.08.63-1.7 2.37-1.89m.26 2.14a1.49 1.49 0 0 0 1.66-1.4l-1.59.23c-.58.07-.9.16-.9.55s.38.62.83.62M95 24.07h1.65v-5.55h-1.4V17h2.25a.82.82 0 0 1 .92.9v6.22h1.67v1.57H95ZM103.76 19.56a2.83 2.83 0 0 1 3.17 3V23h-4.47a1.31 1.31 0 0 0 1.37 1.36 1.21 1.21 0 0 0 1.33-.86h1.78c-.17 1.27-1.26 2.22-3.09 2.22a3 3 0 0 1-3.19-3.13 2.89 2.89 0 0 1 3.1-3.03m1.42 2.51a1.38 1.38 0 0 0-2.73 0ZM57.86 39.23c-2.85 0-4.1-1.23-4.1-3.36h2c0 1.26.58 1.78 2.2 1.78 1.15 0 1.63-.27 1.63-.89 0-.37-.27-.66-.86-.81L56 35.24A2.15 2.15 0 0 1 54.12 33c0-1.58 1.17-2.42 3.28-2.42 2.53 0 3.79 1.2 3.79 3h-1.95c0-1-.57-1.43-1.82-1.43-.88 0-1.35.25-1.35.82 0 .32.18.57.79.73l2.62.65a2.28 2.28 0 0 1 2 2.33c.01 1.56-1.04 2.55-3.62 2.55M65.65 33c1.86 0 3.35 1.06 3.35 3.09a3.35 3.35 0 0 1-6.68 0c-.01-2.03 1.46-3.09 3.33-3.09m0 4.62a1.42 1.42 0 0 0 1.53-1.54 1.54 1.54 0 0 0-3.07 0 1.42 1.42 0 0 0 1.54 1.55ZM69.93 36.37v-3.25h1.81v3c0 1.1.33 1.52 1.25 1.52s1.74-.61 1.74-2.27v-2.25h1.79v6h-1.79v-1.48a2.32 2.32 0 0 1-2.39 1.56c-1.5 0-2.41-1.01-2.41-2.83M84.13 33.12l-1.81 6h-3.21l-1.82-6h1.82l1.64 5.42 1.62-5.42ZM87.55 33c2 0 3.16 1.11 3.16 3v.5h-4.46a1.3 1.3 0 0 0 1.37 1.36 1.21 1.21 0 0 0 1.32-.86h1.79c-.18 1.27-1.27 2.22-3.1 2.22a3 3 0 0 1-3.19-3.13A2.89 2.89 0 0 1 87.55 33M89 35.51a1.25 1.25 0 0 0-1.39-1.18 1.23 1.23 0 0 0-1.34 1.18ZM92.82 33.12h3.85v1.57h-3v4.39h-1.84v-5a.88.88 0 0 1 .99-.96M99.58 35.63l1.92-.2c0-.72-.35-1-1.23-1s-1.14.32-1.19 1h-1.69c0-1.52 1.35-2.35 3-2.35s3 .82 3 2.65v1.85h.86v1.57h-1.3a.79.79 0 0 1-.88-.86v-.64c-.27.87-.92 1.62-2.59 1.62-1.86 0-2.15-1.14-2.15-1.75-.08-1.09.51-1.7 2.25-1.89m-.62-5c.62 0 1.07.33 1.07.91s-.45.92-1.07.92-1-.31-1-.92.38-.91 1.04-.91Zm.88 7.14a1.49 1.49 0 0 0 1.66-1.4l-1.59.23c-.58.07-.9.16-.9.55s.38.62.83.62m1.94-7.14c.62 0 1.06.33 1.06.91s-.44.92-1.06.92-1-.31-1-.92.36-.91 1-.91M105.06 33.12h1.8v1.45a2.31 2.31 0 0 1 2.39-1.57c1.5 0 2.41 1 2.41 2.82v3.25h-1.81v-3c0-1.1-.33-1.51-1.25-1.51s-1.74.6-1.74 2.27v2.23h-1.8ZM112.71 37.51h1.66v-2.82H113v-1.57h2.11a.84.84 0 0 1 1 .92v3.47h1.68v1.57h-5Zm2.35-6.95c.66 0 1.13.34 1.13 1s-.47 1-1.13 1-1.1-.32-1.1-1 .44-1 1.1-1M123.1 39.08h-3a.89.89 0 0 1-1-1v-3.4h-1.39v-1.56h1.39V32l1.8-.55v1.72h2v1.57h-2v2.82h2.2ZM126.21 35.63l1.92-.2c0-.72-.35-1-1.22-1s-1.15.32-1.2 1H124c0-1.52 1.35-2.35 3-2.35s3 .82 3 2.65v1.85h.87v1.57h-1.3a.8.8 0 0 1-.89-.86v-.64c-.27.87-.92 1.62-2.59 1.62-1.85 0-2.15-1.14-2.15-1.75-.06-1.09.53-1.7 2.27-1.89m-.62-5c.62 0 1.07.33 1.07.91s-.45.92-1.07.92-1-.31-1-.92.41-.91 1-.91m.88 7.14a1.49 1.49 0 0 0 1.66-1.4l-1.59.23c-.58.07-.9.16-.9.55s.36.62.83.62m1.94-7.14c.62 0 1.06.33 1.06.91s-.44.92-1.06.92-1-.31-1-.92.36-.91 1-.91M136.3 39.08h-3a.89.89 0 0 1-1-1v-3.4h-1.39v-1.56h1.39V32l1.8-.55v1.72h2v1.57h-2v2.82h2.2ZM12.54 17.62 19.46 14h-6.92v-1.8h7.51v3.62l-6.91 3.6h6.91v1.81h-7.51ZM24.21 14.65c2.15 0 3.43 1.2 3.43 3.22v.54H22.8a1.42 1.42 0 0 0 1.49 1.47 1.3 1.3 0 0 0 1.43-.88h1.94c-.2 1.38-1.37 2.41-3.36 2.41A3.22 3.22 0 0 1 20.84 18a3.13 3.13 0 0 1 3.37-3.35m1.54 2.71a1.36 1.36 0 0 0-1.5-1.28 1.34 1.34 0 0 0-1.46 1.28ZM28.72 14.77h1.94v1.57a2.51 2.51 0 0 1 2.59-1.69c1.63 0 2.62 1.08 2.62 3.06v3.52h-2V18c0-1.19-.36-1.64-1.36-1.64-1.16 0-1.89.65-1.89 2.46v2.42h-1.9ZM12.59 24.07h3.32c2.42 0 4.93.62 4.93 4.51s-2.51 4.52-4.93 4.52h-3.32Zm3.32 7.22c1.56 0 2.87-.09 2.87-2.71s-1.32-2.72-2.87-2.72h-1.27v5.43ZM21.79 31.39h1.81v-3h-1.54v-1.75h2.3a.91.91 0 0 1 1 1v3.75h1.82v1.71h-5.39Zm2.55-7.53c.72 0 1.23.37 1.23 1.05s-.51 1-1.23 1-1.19-.35-1.19-1 .48-1.05 1.19-1.05M32.29 33.26c-3.09 0-4.44-1.33-4.44-3.65H30c0 1.37.63 1.94 2.38 1.94 1.25 0 1.77-.3 1.77-1 0-.41-.29-.72-.93-.89l-2.91-.77a2.32 2.32 0 0 1-2-2.42c0-1.7 1.27-2.61 3.56-2.61 2.74 0 4.11 1.29 4.11 3.24h-2.19c0-1.07-.63-1.55-2-1.55-1 0-1.48.27-1.48.88 0 .35.21.62.86.8l2.85.7a2.48 2.48 0 0 1 2.17 2.53c.03 1.73-1.11 2.8-3.9 2.8"></path></svg>